<svg width="40" height="40" viewBox="0 0 40 40" fill="none" xmlns="http://www.w3.org/2000/svg">
<g id="bell-bing-svgrepo-com 1">
<path id="Vector" d="M31.2485 16.1825V15.0082C31.2485 8.5603 26.2123 3.33325 20 3.33325C13.7876 3.33325 8.75145 8.5603 8.75145 15.0082V16.1825C8.75145 17.5919 8.34953 18.9696 7.59633 20.1423L5.7506 23.0158C4.0647 25.6404 5.35175 29.2081 8.28393 30.0381C15.9546 32.2094 24.0455 32.2094 31.716 30.0381C34.6483 29.2081 35.9353 25.6404 34.2493 23.0158L32.4037 20.1423C31.6505 18.9696 31.2485 17.5919 31.2485 16.1825Z" stroke="white" stroke-width="2.5"/>
<path id="Vector_2" d="M12.5 31.6667C13.5917 34.5797 16.5374 36.6667 20 36.6667C23.4625 36.6667 26.4083 34.5797 27.5 31.6667" stroke="white" stroke-width="2.5" stroke-linecap="round"/>
<path id="Vector_3" d="M20 10V16.6667" stroke="white" stroke-width="2.5" stroke-linecap="round"/>
</g>
</svg>
