<svg width="40" height="40" viewBox="0 0 40 40" fill="none" xmlns="http://www.w3.org/2000/svg">
<g id="chart-2-svgrepo-com 1">
<path id="Vector" d="M5 36.6666H35" stroke="white" stroke-width="2.5" stroke-linecap="round" stroke-linejoin="round"/>
<path id="Vector_2" d="M5 18.3333C5 16.762 5 15.9763 5.48815 15.4881C5.97632 15 6.76198 15 8.33333 15C9.90468 15 10.6903 15 11.1785 15.4881C11.6667 15.9763 11.6667 16.762 11.6667 18.3333V28.3333C11.6667 29.9047 11.6667 30.6903 11.1785 31.1785C10.6903 31.6667 9.90468 31.6667 8.33333 31.6667C6.76198 31.6667 5.97632 31.6667 5.48815 31.1785C5 30.6903 5 29.9047 5 28.3333V18.3333Z" stroke="white" stroke-width="2.5"/>
<path id="Vector_3" d="M16.6667 11.6667C16.6667 10.0954 16.6667 9.30969 17.1549 8.82152C17.643 8.33337 18.4287 8.33337 20 8.33337C21.5714 8.33337 22.357 8.33337 22.8452 8.82152C23.3334 9.30969 23.3334 10.0954 23.3334 11.6667V28.3334C23.3334 29.9047 23.3334 30.6904 22.8452 31.1785C22.357 31.6667 21.5714 31.6667 20 31.6667C18.4287 31.6667 17.643 31.6667 17.1549 31.1785C16.6667 30.6904 16.6667 29.9047 16.6667 28.3334V11.6667Z" stroke="white" stroke-width="2.5"/>
<path id="Vector_4" d="M28.3333 6.66671C28.3333 5.09536 28.3333 4.30969 28.8215 3.82152C29.3096 3.33337 30.0953 3.33337 31.6666 3.33337C33.238 3.33337 34.0236 3.33337 34.5118 3.82152C35 4.30969 35 5.09536 35 6.66671V28.3334C35 29.9047 35 30.6904 34.5118 31.1785C34.0236 31.6667 33.238 31.6667 31.6666 31.6667C30.0953 31.6667 29.3096 31.6667 28.8215 31.1785C28.3333 30.6904 28.3333 29.9047 28.3333 28.3334V6.66671Z" stroke="white" stroke-width="2.5"/>
</g>
</svg>
