<svg width="40" height="40" viewBox="0 0 40 40" fill="none" xmlns="http://www.w3.org/2000/svg">
<g id="money-bag-svgrepo-com 1">
<path id="Vector" d="M3.33334 23.3333C3.33334 17.048 3.33334 13.9052 5.28596 11.9526C7.23859 10 10.3813 10 16.6667 10H23.3333C29.6187 10 32.7615 10 34.714 11.9526C36.6667 13.9052 36.6667 17.048 36.6667 23.3333C36.6667 29.6187 36.6667 32.7615 34.714 34.714C32.7615 36.6667 29.6187 36.6667 23.3333 36.6667H16.6667C10.3813 36.6667 7.23859 36.6667 5.28596 34.714C3.33334 32.7615 3.33334 29.6187 3.33334 23.3333Z" stroke="white" stroke-width="2.5"/>
<path id="Vector_2" d="M26.6667 10C26.6667 6.85734 26.6667 5.28599 25.6903 4.30969C24.714 3.33337 23.1427 3.33337 20 3.33337C16.8573 3.33337 15.286 3.33337 14.3097 4.30969C13.3333 5.28599 13.3333 6.85734 13.3333 10" stroke="white" stroke-width="2.5"/>
<path id="Vector_3" d="M20 28.8888C21.841 28.8888 23.3333 27.6451 23.3333 26.1111C23.3333 24.577 21.841 23.3333 20 23.3333C18.159 23.3333 16.6667 22.0896 16.6667 20.5555C16.6667 19.0215 18.159 17.7778 20 17.7778M20 28.8888C18.159 28.8888 16.6667 27.6451 16.6667 26.1111M20 28.8888V30M20 17.7778V16.6666M20 17.7778C21.841 17.7778 23.3333 19.0215 23.3333 20.5555" stroke="white" stroke-width="2.5" stroke-linecap="round"/>
</g>
</svg>
