<svg width="23" height="23" viewBox="0 0 23 23" fill="none" xmlns="http://www.w3.org/2000/svg">
<g clip-path="url(#clip0_61_1456)">
<path d="M11.5 23C17.8513 23 23 17.8513 23 11.5C23 5.14873 17.8513 0 11.5 0C5.14873 0 0 5.14873 0 11.5C0 17.8513 5.14873 23 11.5 23Z" fill="url(#paint0_linear_61_1456)"/>
<path fill-rule="evenodd" clip-rule="evenodd" d="M5.20554 11.3785C8.55802 9.91784 10.7935 8.9549 11.9121 8.48966C15.1058 7.1613 15.7694 6.93055 16.2019 6.92293C16.297 6.92126 16.5097 6.94483 16.6475 7.05664C16.7639 7.15104 16.7959 7.27857 16.8112 7.36807C16.8265 7.45757 16.8456 7.66147 16.8304 7.82079C16.6574 9.63921 15.9085 14.052 15.5275 16.0887C15.3663 16.9505 15.0489 17.2394 14.7416 17.2677C14.0738 17.3292 13.5667 16.8264 12.9199 16.4024C11.9077 15.7389 11.3359 15.3259 10.3534 14.6785C9.21803 13.9302 9.95407 13.519 10.6011 12.8469C10.7705 12.671 13.7129 9.99465 13.7699 9.75186C13.777 9.72149 13.7836 9.60831 13.7164 9.54854C13.6491 9.48877 13.5499 9.50921 13.4783 9.52547C13.3768 9.54851 11.7598 10.6172 8.6275 12.7316C8.16855 13.0468 7.75284 13.2004 7.38038 13.1923C6.96977 13.1834 6.17992 12.9601 5.59275 12.7693C4.87256 12.5352 4.30017 12.4114 4.35001 12.0138C4.37597 11.8067 4.66115 11.5949 5.20554 11.3785Z" fill="white"/>
</g>
<defs>
<linearGradient id="paint0_linear_61_1456" x1="1150" y1="0" x2="1150" y2="2282.94" gradientUnits="userSpaceOnUse">
<stop stop-color="#2AABEE"/>
<stop offset="1" stop-color="#229ED9"/>
</linearGradient>
<clipPath id="clip0_61_1456">
<rect width="23" height="23" fill="white"/>
</clipPath>
</defs>
</svg>
