<svg width="40" height="40" viewBox="0 0 40 40" fill="none" xmlns="http://www.w3.org/2000/svg">
<path d="M22.8871 36.283L23.7906 34.7567L21.6391 33.4832L20.7356 35.0097L22.8871 36.283ZM16.2099 34.7567L17.1134 36.283L19.2647 35.0097L18.3612 33.4832L16.2099 34.7567ZM20.7356 35.0097C20.4144 35.5523 19.5861 35.5523 19.2647 35.0097L17.1134 36.283C18.4027 38.4613 21.5977 38.4613 22.8871 36.283L20.7356 35.0097ZM17.5002 4.5835H22.5002V2.0835H17.5002V4.5835ZM35.4169 17.5002V19.1668H37.9169V17.5002H35.4169ZM4.58357 19.1668V17.5002H2.08357V19.1668H4.58357ZM2.08357 19.1668C2.08357 21.0912 2.08289 22.597 2.16576 23.8115C2.24941 25.0373 2.42229 26.0575 2.81306 27.0008L5.12276 26.0442C4.87919 25.4562 4.73492 24.7398 4.65997 23.6413C4.58426 22.5317 4.58357 21.1253 4.58357 19.1668H2.08357ZM13.0044 30.4028C10.912 30.3667 9.81562 30.2337 8.95622 29.8777L7.99952 32.1873C9.34114 32.743 10.8692 32.8663 12.9613 32.9023L13.0044 30.4028ZM2.81306 27.0008C3.78571 29.349 5.65134 31.2147 7.99952 32.1873L8.95622 29.8777C7.22061 29.1587 5.84167 27.7798 5.12276 26.0442L2.81306 27.0008ZM35.4169 19.1668C35.4169 21.1253 35.4162 22.5317 35.3406 23.6413C35.2656 24.7398 35.1212 25.4562 34.8777 26.0442L37.1874 27.0008C37.5782 26.0575 37.7511 25.0373 37.8347 23.8115C37.9176 22.597 37.9169 21.0912 37.9169 19.1668H35.4169ZM27.0391 32.9023C29.1312 32.8663 30.6594 32.743 32.0009 32.1873L31.0442 29.8777C30.1849 30.2337 29.0884 30.3667 26.9961 30.4028L27.0391 32.9023ZM34.8777 26.0442C34.1587 27.7798 32.7799 29.1587 31.0442 29.8777L32.0009 32.1873C34.3491 31.2147 36.2147 29.349 37.1874 27.0008L34.8777 26.0442ZM22.5002 4.5835C25.2522 4.5835 27.2286 4.58481 28.7701 4.73138C30.2931 4.87618 31.2621 5.15388 32.0346 5.6273L33.3409 3.4957C32.1094 2.74111 30.7126 2.40481 29.0067 2.24261C27.3194 2.08218 25.2039 2.0835 22.5002 2.0835V4.5835ZM37.9169 17.5002C37.9169 14.7965 37.9182 12.681 37.7577 10.9937C37.5956 9.28776 37.2592 7.89091 36.5047 6.65955L34.3731 7.9658C34.8466 8.73835 35.1242 9.7074 35.2691 11.2303C35.4156 12.7718 35.4169 14.7481 35.4169 17.5002H37.9169ZM32.0346 5.6273C32.9877 6.21136 33.7891 7.0127 34.3731 7.9658L36.5047 6.65955C35.7146 5.37006 34.6304 4.2859 33.3409 3.4957L32.0346 5.6273ZM17.5002 2.0835C14.7966 2.0835 12.6811 2.08218 10.9938 2.24261C9.28784 2.40481 7.89099 2.74111 6.65962 3.4957L7.96587 5.6273C8.73842 5.15388 9.70747 4.87618 11.2304 4.73138C12.7719 4.58481 14.7482 4.5835 17.5002 4.5835V2.0835ZM4.58357 17.5002C4.58357 14.7481 4.58489 12.7718 4.73146 11.2303C4.87626 9.7074 5.15396 8.73835 5.62737 7.9658L3.49577 6.65955C2.74119 7.89091 2.40489 9.28776 2.24269 10.9937C2.08226 12.681 2.08357 14.7965 2.08357 17.5002H4.58357ZM6.65962 3.4957C5.37014 4.2859 4.28597 5.37006 3.49577 6.65955L5.62737 7.9658C6.21144 7.0127 7.01277 6.21136 7.96587 5.6273L6.65962 3.4957ZM18.3612 33.4832C18.0229 32.9115 17.7259 32.407 17.4371 32.0107C17.1327 31.5933 16.7839 31.2175 16.3 30.936L15.0431 33.0972C15.1221 33.143 15.2298 33.2268 15.4167 33.4832C15.6189 33.7608 15.8475 34.1443 16.2099 34.7567L18.3612 33.4832ZM12.9613 32.9023C13.6932 32.915 14.1567 32.9243 14.51 32.9633C14.8402 33 14.9682 33.0535 15.0431 33.0972L16.3 30.936C15.8121 30.6522 15.3043 30.536 14.7852 30.4785C14.2892 30.4237 13.6898 30.4147 13.0044 30.4028L12.9613 32.9023ZM23.7906 34.7567C24.1529 34.1443 24.3814 33.7608 24.5837 33.4832C24.7706 33.2268 24.8782 33.143 24.9572 33.0972L23.7004 30.936C23.2166 31.2175 22.8676 31.5933 22.5634 32.0107C22.2746 32.407 21.9776 32.9115 21.6391 33.4832L23.7906 34.7567ZM26.9961 30.4028C26.3106 30.4147 25.7112 30.4237 25.2152 30.4785C24.6961 30.536 24.1884 30.6522 23.7004 30.936L24.9572 33.0972C25.0322 33.0535 25.1602 33 25.4904 32.9633C25.8437 32.9243 26.3072 32.915 27.0391 32.9023L26.9961 30.4028Z" fill="#124BDC"/>
<path d="M13.3336 15.0002H26.6669" stroke="#124BDC" stroke-width="2.5" stroke-linecap="round"/>
<path d="M13.3336 20.8335H22.5002" stroke="#124BDC" stroke-width="2.5" stroke-linecap="round"/>
</svg>
