<svg width="40" height="40" viewBox="0 0 40 40" fill="none" xmlns="http://www.w3.org/2000/svg">
<path d="M31.0597 26.117L33.9204 17.5348C36.4196 10.0375 37.6691 6.28886 35.6902 4.31008C33.7116 2.33131 29.9629 3.58086 22.4656 6.07996L13.8834 8.94069C7.83229 10.9577 4.80678 11.9662 3.94701 13.4451C3.12909 14.852 3.12909 16.5896 3.94701 17.9965C4.80678 19.4755 7.83229 20.484 13.8834 22.501C14.8549 22.8248 15.3407 22.9868 15.7468 23.2587C16.1403 23.522 16.4784 23.8602 16.7417 24.2537C17.0136 24.6597 17.1756 25.1455 17.4994 26.117C19.5164 32.1682 20.5249 35.1937 22.0039 36.0533C23.4107 36.8713 25.1484 36.8713 26.5552 36.0533C28.0342 35.1937 29.0427 32.1682 31.0597 26.117Z" stroke="#124BDC" stroke-width="2.5"/>
<path d="M29.6496 10.3518L22.6321 17.292" stroke="#124BDC" stroke-width="2.5" stroke-linecap="round"/>
</svg>
