<svg width="40" height="40" viewBox="0 0 40 40" fill="none" xmlns="http://www.w3.org/2000/svg">
<path d="M3.33356 27.0835C2.64321 27.0835 2.08356 27.6432 2.08356 28.3335C2.08356 29.0238 2.64321 29.5835 3.33356 29.5835V27.0835ZM36.6669 11.6668L37.5507 12.5507C38.0389 12.0626 38.0389 11.2711 37.5507 10.7829L36.6669 11.6668ZM32.4497 14.1163C31.9616 14.6044 31.9616 15.3959 32.4497 15.884C32.9379 16.3722 33.7292 16.3722 34.2174 15.884L32.4497 14.1163ZM34.2174 7.44961C33.7292 6.96146 32.9379 6.96146 32.4497 7.44961C31.9616 7.93776 31.9616 8.72923 32.4497 9.21738L34.2174 7.44961ZM3.33356 29.5835H9.33832V27.0835H3.33356V29.5835ZM18.9851 24.1215L23.1591 17.165L21.0154 15.8788L16.8414 22.8353L18.9851 24.1215ZM30.6621 12.9168H36.6669V10.4168H30.6621V12.9168ZM35.7831 10.7829L32.4497 14.1163L34.2174 15.884L37.5507 12.5507L35.7831 10.7829ZM37.5507 10.7829L34.2174 7.44961L32.4497 9.21738L35.7831 12.5507L37.5507 10.7829ZM23.1591 17.165C23.8827 15.9588 24.3812 15.1307 24.8357 14.5168C25.2742 13.9246 25.6156 13.6119 25.9836 13.4036L24.7519 11.2281C23.9736 11.6687 23.3861 12.2734 22.8266 13.0292C22.2831 13.7631 21.7144 14.7136 21.0154 15.8788L23.1591 17.165ZM30.6621 10.4168C29.3034 10.4168 28.1957 10.4155 27.2867 10.5038C26.3509 10.5948 25.5301 10.7874 24.7519 11.2281L25.9836 13.4036C26.3516 13.1952 26.7952 13.0634 27.5286 12.9921C28.2891 12.9182 29.2554 12.9168 30.6621 12.9168V10.4168ZM9.33832 29.5835C10.6971 29.5835 11.8047 29.5848 12.7137 29.4965C13.6496 29.4055 14.4704 29.2128 15.2486 28.7722L14.0169 26.5967C13.6489 26.8052 13.2052 26.937 12.4718 27.0082C11.7115 27.0822 10.745 27.0835 9.33832 27.0835V29.5835ZM16.8414 22.8353C16.1177 24.0415 15.6192 24.8697 15.1647 25.4835C14.7262 26.0758 14.3849 26.3883 14.0169 26.5967L15.2486 28.7722C16.0269 28.3317 16.6144 27.7268 17.1739 26.9712C17.7174 26.2372 18.2861 25.2867 18.9851 24.1215L16.8414 22.8353Z" fill="#124BDC"/>
<path d="M3.33356 10.417C2.64321 10.417 2.08356 10.9767 2.08356 11.667C2.08356 12.3574 2.64321 12.917 3.33356 12.917V10.417ZM36.6669 28.3337L37.5507 29.2175C38.0389 28.7294 38.0389 27.938 37.5507 27.4499L36.6669 28.3337ZM34.2174 24.1165C33.7292 23.6284 32.9379 23.6284 32.4497 24.1165C31.9616 24.6047 31.9616 25.396 32.4497 25.8842L34.2174 24.1165ZM32.4497 30.7832C31.9616 31.2714 31.9616 32.0627 32.4497 32.5509C32.9379 33.039 33.7292 33.039 34.2174 32.5509L32.4497 30.7832ZM24.0721 24.3572C23.7169 23.7652 22.9491 23.5734 22.3571 23.9285C21.7651 24.2837 21.5732 25.0515 21.9284 25.6435L24.0721 24.3572ZM15.9284 15.6435C16.2835 16.2355 17.0514 16.4274 17.6434 16.0722C18.2354 15.717 18.4272 14.9492 18.0721 14.3572L15.9284 15.6435ZM3.33356 12.917H11.1129V10.417H3.33356V12.917ZM28.8876 29.5837H36.6669V27.0837H28.8876V29.5837ZM37.5507 27.4499L34.2174 24.1165L32.4497 25.8842L35.7831 29.2175L37.5507 27.4499ZM35.7831 27.4499L32.4497 30.7832L34.2174 32.5509L37.5507 29.2175L35.7831 27.4499ZM28.8876 27.0837C27.8114 27.0837 27.4416 27.0782 27.1147 27.0147L26.6371 29.4685C27.2566 29.5892 27.9124 29.5837 28.8876 29.5837V27.0837ZM21.9284 25.6435C22.4301 26.4795 22.7627 27.0449 23.1849 27.514L25.0434 25.8419C24.8207 25.5944 24.6257 25.28 24.0721 24.3572L21.9284 25.6435ZM27.1147 27.0147C26.3152 26.859 25.5882 26.4474 25.0434 25.8419L23.1849 27.514C24.0929 28.5232 25.3046 29.2092 26.6371 29.4685L27.1147 27.0147ZM11.1129 12.917C12.1891 12.917 12.5589 12.9225 12.8857 12.9861L13.3634 10.5322C12.7438 10.4116 12.088 10.417 11.1129 10.417V12.917ZM18.0721 14.3572C17.5704 13.5211 17.2377 12.9559 16.8156 12.4867L14.957 14.1588C15.1797 14.4064 15.3747 14.7207 15.9284 15.6435L18.0721 14.3572ZM12.8857 12.9861C13.6852 13.1417 14.4123 13.5534 14.957 14.1588L16.8156 12.4867C15.9076 11.4776 14.6958 10.7915 13.3634 10.5322L12.8857 12.9861Z" fill="#124BDC"/>
</svg>
