<svg width="40" height="40" viewBox="0 0 40 40" fill="none" xmlns="http://www.w3.org/2000/svg">
<path d="M15.8336 23.3335C18.5951 23.3335 20.8336 25.572 20.8336 28.3335C20.8336 31.0948 18.5951 33.3335 15.8336 33.3335C13.0722 33.3335 10.8336 31.0948 10.8336 28.3335C10.8336 25.572 13.0722 23.3335 15.8336 23.3335Z" stroke="#124BDC" stroke-width="2.5"/>
<path d="M24.1669 6.66699C21.4054 6.66699 19.1669 8.90556 19.1669 11.667C19.1669 14.4284 21.4054 16.667 24.1669 16.667C26.9284 16.667 29.1669 14.4284 29.1669 11.667C29.1669 8.90556 26.9284 6.66699 24.1669 6.66699Z" stroke="#124BDC" stroke-width="2.5"/>
<path d="M25.0002 28.2644H36.6669" stroke="#124BDC" stroke-width="2.5" stroke-linecap="round"/>
<path d="M15.0002 11.5977H3.33357" stroke="#124BDC" stroke-width="2.5" stroke-linecap="round"/>
<path d="M3.33357 28.2644H6.66691" stroke="#124BDC" stroke-width="2.5" stroke-linecap="round"/>
<path d="M36.6669 11.5977H33.3336" stroke="#124BDC" stroke-width="2.5" stroke-linecap="round"/>
</svg>
