<svg width="40" height="40" viewBox="0 0 40 40" fill="none" xmlns="http://www.w3.org/2000/svg">
<path d="M16.6669 36.6669C10.3815 36.6669 7.23881 36.6669 5.28617 34.7142C3.33356 32.7617 3.33356 31.2856 3.33356 25.0002" stroke="#124BDC" stroke-width="2.5" stroke-linecap="round"/>
<path d="M36.6669 25.0002C36.6669 31.2856 36.6669 32.7617 34.7142 34.7142C32.7617 36.6669 29.6189 36.6669 23.3336 36.6669" stroke="#124BDC" stroke-width="2.5" stroke-linecap="round"/>
<path d="M23.3336 3.3335C29.6189 3.3335 32.7617 3.3335 34.7142 5.28611C36.6669 7.23875 36.6669 8.71476 36.6669 15.0002" stroke="#124BDC" stroke-width="2.5" stroke-linecap="round"/>
<path d="M16.6669 3.3335C10.3815 3.3335 7.23881 3.3335 5.28617 5.28611C3.33356 7.23875 3.33356 8.71476 3.33356 15.0002" stroke="#124BDC" stroke-width="2.5" stroke-linecap="round"/>
<path d="M9.82094 23.4333C8.82936 22.2832 8.33356 21.708 8.33356 20.0003C8.33356 18.2927 8.82934 17.7175 9.82092 16.5673C11.8008 14.2707 15.1214 11.667 20.0002 11.667C24.8791 11.667 28.1996 14.2707 30.1796 16.5673C31.1711 17.7175 31.6669 18.2927 31.6669 20.0003C31.6669 21.708 31.1711 22.2832 30.1796 23.4333C28.1996 25.73 24.8791 28.3337 20.0002 28.3337C15.1214 28.3337 11.8009 25.73 9.82094 23.4333Z" stroke="#124BDC" stroke-width="2.5"/>
<path d="M20.0003 23.3337C21.8412 23.3337 23.3336 21.8413 23.3336 20.0003C23.3336 18.1594 21.8412 16.667 20.0003 16.667C18.1593 16.667 16.6669 18.1594 16.6669 20.0003C16.6669 21.8413 18.1593 23.3337 20.0003 23.3337Z" stroke="#124BDC" stroke-width="2.5"/>
</svg>
