<svg width="25" height="25" viewBox="0 0 25 25" fill="none" xmlns="http://www.w3.org/2000/svg">
<path fill-rule="evenodd" clip-rule="evenodd" d="M16.1182 7.24752C16.4303 7.51993 16.4624 7.99371 16.19 8.30575L8.00547 17.6807C7.86304 17.8439 7.65705 17.9375 7.44048 17.9375C7.22391 17.9375 7.01792 17.8439 6.87549 17.6807L3.60168 13.9307C3.32927 13.6187 3.36139 13.1449 3.67342 12.8725C3.98546 12.6001 4.45924 12.6322 4.73165 12.9443L7.44048 16.0471L15.06 7.31926C15.3324 7.00723 15.8062 6.9751 16.1182 7.24752Z" fill="#124BDC"/>
<path fill-rule="evenodd" clip-rule="evenodd" d="M21.3506 7.33451C21.6505 7.62018 21.6621 8.09491 21.3764 8.39485L12.4476 17.7699C12.2961 17.9289 12.0825 18.0136 11.8632 18.0015C11.6438 17.9894 11.4408 17.8817 11.3078 17.707L10.8616 17.121C10.6107 16.7915 10.6744 16.3209 11.004 16.07C11.2951 15.8483 11.6963 15.8722 11.9589 16.108L20.2902 7.36035C20.5759 7.06041 21.0506 7.04884 21.3506 7.33451Z" fill="#124BDC"/>
</svg>
