<svg width="40" height="40" viewBox="0 0 40 40" fill="none" xmlns="http://www.w3.org/2000/svg">
<g id="chat-line-svgrepo-com 1">
<path id="Vector" d="M22.8868 36.2828L23.7903 34.7565L21.6388 33.483L20.7353 35.0095L22.8868 36.2828ZM16.2096 34.7565L17.1132 36.2828L19.2645 35.0095L18.361 33.483L16.2096 34.7565ZM20.7353 35.0095C20.4142 35.5522 19.5858 35.5522 19.2645 35.0095L17.1132 36.2828C18.4025 38.4612 21.5975 38.4612 22.8868 36.2828L20.7353 35.0095ZM17.5 4.58334H22.5V2.08334H17.5V4.58334ZM35.4167 17.5V19.1667H37.9167V17.5H35.4167ZM4.58333 19.1667V17.5H2.08333V19.1667H4.58333ZM2.08333 19.1667C2.08333 21.091 2.08265 22.5968 2.16551 23.8113C2.24916 25.0372 2.42205 26.0573 2.81281 27.0007L5.12251 26.044C4.87895 25.456 4.73468 24.7397 4.65973 23.6412C4.58401 22.5315 4.58333 21.1252 4.58333 19.1667H2.08333ZM13.0042 30.4027C10.9118 30.3665 9.81538 30.2335 8.95598 29.8775L7.99928 32.1872C9.3409 32.7428 10.869 32.8662 12.9611 32.9022L13.0042 30.4027ZM2.81281 27.0007C3.78546 29.3488 5.6511 31.2145 7.99928 32.1872L8.95598 29.8775C7.22036 29.1585 5.84143 27.7797 5.12251 26.044L2.81281 27.0007ZM35.4167 19.1667C35.4167 21.1252 35.416 22.5315 35.3403 23.6412C35.2653 24.7397 35.121 25.456 34.8775 26.044L37.1872 27.0007C37.578 26.0573 37.7508 25.0372 37.8345 23.8113C37.9173 22.5968 37.9167 21.091 37.9167 19.1667H35.4167ZM27.0388 32.9022C29.131 32.8662 30.6592 32.7428 32.0007 32.1872L31.044 29.8775C30.1847 30.2335 29.0882 30.3665 26.9958 30.4027L27.0388 32.9022ZM34.8775 26.044C34.1585 27.7797 32.7797 29.1585 31.044 29.8775L32.0007 32.1872C34.3488 31.2145 36.2145 29.3488 37.1872 27.0007L34.8775 26.044ZM22.5 4.58334C25.252 4.58334 27.2283 4.58466 28.7698 4.73123C30.2928 4.87603 31.2618 5.15373 32.0343 5.62714L33.3407 3.49554C32.1092 2.74096 30.7123 2.40466 29.0065 2.24246C27.3192 2.08203 25.2037 2.08334 22.5 2.08334V4.58334ZM37.9167 17.5C37.9167 14.7964 37.918 12.6808 37.7575 10.9935C37.5953 9.28761 37.259 7.89076 36.5045 6.65939L34.3728 7.96564C34.8463 8.73819 35.124 9.70724 35.2688 11.2302C35.4153 12.7717 35.4167 14.7479 35.4167 17.5H37.9167ZM32.0343 5.62714C32.9875 6.21121 33.7888 7.01254 34.3728 7.96564L36.5045 6.65939C35.7143 5.36991 34.6302 4.28574 33.3407 3.49554L32.0343 5.62714ZM17.5 2.08334C14.7963 2.08334 12.6808 2.08203 10.9935 2.24246C9.28759 2.40466 7.89075 2.74096 6.65938 3.49554L7.96563 5.62714C8.73818 5.15373 9.70723 4.87603 11.2301 4.73123C12.7717 4.58466 14.7479 4.58334 17.5 4.58334V2.08334ZM4.58333 17.5C4.58333 14.7479 4.58465 12.7717 4.73121 11.2302C4.87601 9.70724 5.15371 8.73819 5.62713 7.96564L3.49553 6.65939C2.74095 7.89076 2.40465 9.28761 2.24245 10.9935C2.08201 12.6808 2.08333 14.7964 2.08333 17.5H4.58333ZM6.65938 3.49554C5.3699 4.28574 4.28573 5.36991 3.49553 6.65939L5.62713 7.96564C6.2112 7.01254 7.01253 6.21121 7.96563 5.62714L6.65938 3.49554ZM18.361 33.483C18.0227 32.9113 17.7257 32.4068 17.4368 32.0105C17.1325 31.5932 16.7837 31.2173 16.2998 30.9358L15.0429 33.097C15.1219 33.1428 15.2295 33.2267 15.4164 33.483C15.6187 33.7607 15.8472 34.1442 16.2096 34.7565L18.361 33.483ZM12.9611 32.9022C13.6929 32.9148 14.1564 32.9242 14.5098 32.9632C14.84 32.9998 14.968 33.0533 15.0429 33.097L16.2998 30.9358C15.8118 30.652 15.3041 30.5358 14.7849 30.4783C14.289 30.4235 13.6896 30.4145 13.0042 30.4027L12.9611 32.9022ZM23.7903 34.7565C24.1527 34.1442 24.3812 33.7607 24.5835 33.483C24.7703 33.2267 24.878 33.1428 24.957 33.097L23.7002 30.9358C23.2163 31.2173 22.8673 31.5932 22.5632 32.0105C22.2743 32.4068 21.9773 32.9113 21.6388 33.483L23.7903 34.7565ZM26.9958 30.4027C26.3103 30.4145 25.711 30.4235 25.215 30.4783C24.6958 30.5358 24.1882 30.652 23.7002 30.9358L24.957 33.097C25.032 33.0533 25.16 32.9998 25.4902 32.9632C25.8435 32.9242 26.307 32.9148 27.0388 32.9022L26.9958 30.4027Z" fill="white"/>
<g id="Vector_2">
<path d="M13.3333 15H26.6667H13.3333Z" fill="white"/>
<path d="M13.3333 15H26.6667" stroke="white" stroke-width="2.5" stroke-linecap="round"/>
</g>
<g id="Vector_3">
<path d="M13.3333 20.8333H22.5H13.3333Z" fill="white"/>
<path d="M13.3333 20.8333H22.5" stroke="white" stroke-width="2.5" stroke-linecap="round"/>
</g>
</g>
</svg>
