<svg width="35" height="35" viewBox="0 0 35 35" fill="none" xmlns="http://www.w3.org/2000/svg">
<g id="whatsapp-logos-idZmM-U_pP 1" clip-path="url(#clip0_50_504)">
<path id="Vector" fill-rule="evenodd" clip-rule="evenodd" d="M29.9003 5.0823C26.6106 1.80656 22.2353 0.00166197 17.5735 0C7.96746 0 0.149573 7.77387 0.14623 17.3294C0.144559 20.384 0.947573 23.3656 2.47255 25.9932L0 34.9745L9.23841 32.5646C11.7836 33.9457 14.6497 34.6728 17.566 34.6737H17.5735C27.1779 34.6737 34.9967 26.899 35 17.3435C35.0017 12.7124 33.1909 8.35888 29.9003 5.08313V5.0823ZM17.5735 31.7469H17.5677C14.9689 31.7462 12.4196 31.0514 10.1952 29.7393L9.66624 29.4269L4.18386 30.8569L5.647 25.5411L5.30272 24.996C3.85296 22.7025 3.08671 20.0516 3.08838 17.3302C3.09172 9.38847 9.58936 2.92673 17.5794 2.92673C21.4482 2.92839 25.0848 4.42832 27.8197 7.15146C30.5546 9.87377 32.0595 13.4936 32.0579 17.3418C32.0545 25.2844 25.5569 31.7462 17.5735 31.7462V31.7469ZM25.5184 20.9591C25.083 20.7422 22.9423 19.6951 22.5428 19.5506C22.1434 19.406 21.8535 19.3337 21.5635 19.7675C21.2736 20.2013 20.4388 21.1768 20.1848 21.4652C19.9308 21.7543 19.6767 21.7901 19.2413 21.5732C18.8061 21.3563 17.4031 20.8993 15.7394 19.4242C14.4451 18.2758 13.571 16.8582 13.317 16.4244C13.063 15.9907 13.2903 15.7563 13.5075 15.5411C13.703 15.3466 13.9428 15.035 14.1609 14.7824C14.3791 14.5297 14.4509 14.3486 14.5963 14.0602C14.7417 13.7711 14.669 13.5185 14.5604 13.3015C14.4517 13.0847 13.5811 10.9532 13.2176 10.0865C12.8641 9.24221 12.5048 9.35689 12.2382 9.34277C11.9842 9.33029 11.6943 9.32781 11.4035 9.32781C11.1127 9.32781 10.6414 9.43584 10.242 9.86961C9.84258 10.3033 8.71783 11.3512 8.71783 13.4819C8.71783 15.6125 10.2779 17.6726 10.496 17.9618C10.7141 18.251 13.5668 22.6244 17.9345 24.5008C18.9732 24.947 19.7845 25.2137 20.4171 25.4132C21.46 25.7431 22.4091 25.6966 23.1595 25.5852C23.996 25.4606 25.7357 24.5373 26.0983 23.526C26.461 22.5147 26.461 21.6471 26.3524 21.4668C26.2438 21.2865 25.953 21.1776 25.5176 20.9607L25.5184 20.9591Z" fill="white"/>
</g>
<defs>
<clipPath id="clip0_50_504">
<rect width="35" height="35" fill="white"/>
</clipPath>
</defs>
</svg>
