<svg width="45" height="47" viewBox="0 0 45 47" fill="none" xmlns="http://www.w3.org/2000/svg">
<path d="M4.28744 8.54534C5.24481 10.8953 6.24381 13.1812 7.40931 15.403C7.72469 15.9494 8.18923 16.3889 8.74544 16.667C9.30166 16.9452 9.92512 17.0498 10.5387 16.9679C11.1522 16.8861 11.7289 16.6214 12.1974 16.2065C12.6658 15.7917 13.0055 15.2449 13.1744 14.6339C13.1926 14.4279 13.1926 14.2205 13.1744 14.0144L15.8592 16.6635L21.7075 22.8589C20.9166 23.4571 20.1257 24.0553 19.3557 24.6748L10.6561 31.618C7.27035 34.1242 4.10201 36.9261 1.18637 39.9925C0.439945 40.7758 0.015246 41.8236 5.76151e-05 42.9193C-0.00359612 43.4639 0.0995526 44.0036 0.303359 44.5064C0.507166 45.0093 0.807465 45.4648 1.18637 45.8461C1.94577 46.5971 2.96243 47.0114 4.01687 46.9997C4.74604 47.0049 5.46374 46.8133 6.09812 46.4442C6.69816 46.079 7.19913 45.5647 7.555 44.9488L7.78393 44.6283C9.01616 43.2109 10.3223 41.863 11.6967 40.5906C12.3002 39.9497 12.9871 39.3729 13.6114 38.7534C14.2358 38.1338 14.7145 37.7066 15.2764 37.2152C18.3359 34.502 21.3953 31.8102 24.4964 29.1611C25.0791 28.6484 25.6827 28.1571 26.2862 27.6443L38.7737 40.9538C39.4679 41.6622 40.4069 42.0598 41.3857 42.0598C42.3645 42.0598 43.3035 41.6622 43.9977 40.9538C44.3344 40.5901 44.5964 40.1606 44.7681 39.6908C44.9397 39.221 45.0174 38.7206 44.9967 38.2193C44.9959 37.2084 44.6157 36.2368 43.9352 35.5061C39.9531 31.2334 35.964 26.9607 31.9681 22.688L33.2792 21.6198C34.4655 20.6157 35.6935 19.6544 36.9006 18.6717L39.627 16.5353C40.8342 15.5953 41.9372 14.4844 43.0819 13.3949C43.3625 13.1214 43.5821 12.7889 43.7258 12.4201C43.8695 12.0514 43.9338 11.6551 43.9144 11.2585C43.9025 10.7711 43.7738 10.2942 43.5398 9.86988C43.2204 9.31945 42.7339 8.8918 42.1549 8.65253C41.576 8.41327 40.9365 8.37561 40.3347 8.54534C39.283 8.8875 38.2598 9.31616 37.2752 9.82715C36.8773 10.0477 36.5416 10.3702 36.3009 10.7632C36.0603 11.1563 35.9227 11.6066 35.9016 12.0703C33.1752 14.1212 30.4279 16.1935 27.7223 18.2657L27.2852 17.8171L21.0415 11.4081C19.8136 10.1049 18.5232 8.86579 17.2328 7.60535C15.9424 6.3449 14.6521 5.1699 13.3201 3.99491C11.9881 2.81991 10.4896 1.62356 9.01187 0.49129C8.46722 0.170039 7.85017 0.000643957 7.222 -7.10588e-05C6.28451 0.00228631 5.38625 0.386468 4.7245 1.06811C4.31168 1.42366 3.95379 1.84144 3.66306 2.30719C3.47371 2.67059 3.31361 3.04928 3.18437 3.43946C3.09363 3.875 3.04483 4.31865 3.03868 4.764C3.1582 6.10798 3.58614 7.40379 4.28744 8.54534Z" fill="black"/>
</svg>
