<svg width="29" height="31" viewBox="0 0 29 31" fill="none" xmlns="http://www.w3.org/2000/svg">
<path d="M26.237 5.63629C25.62 7.18628 24.9762 8.694 24.2251 10.1594C24.0219 10.5198 23.7225 10.8097 23.364 10.9931C23.0056 11.1766 22.6038 11.2456 22.2084 11.1916C21.813 11.1376 21.4414 10.963 21.1395 10.6894C20.8376 10.4158 20.6187 10.0552 20.5099 9.65218C20.4981 9.51625 20.4981 9.37948 20.5099 9.24354L18.7796 10.9908L15.0107 15.0772C15.5204 15.4717 16.0301 15.8662 16.5263 16.2749L22.1328 20.8544C24.3147 22.5075 26.3565 24.3555 28.2354 26.378C28.7165 26.8947 28.9902 27.5858 29 28.3085C29.0023 28.6676 28.9358 29.0237 28.8045 29.3553C28.6732 29.687 28.4796 29.9875 28.2354 30.2389C27.7461 30.7342 27.0909 31.0075 26.4113 30.9998C25.9414 31.0032 25.4789 30.8769 25.0701 30.6334C24.6834 30.3925 24.3606 30.0533 24.1312 29.6471L23.9837 29.4357C23.1896 28.5008 22.3478 27.6118 21.4621 26.7725C21.0732 26.3498 20.6306 25.9694 20.2282 25.5607C19.8258 25.1521 19.5173 24.8703 19.1552 24.5462C17.1835 22.7567 15.2119 20.9812 13.2135 19.2339C12.8379 18.8958 12.4489 18.5717 12.06 18.2335L4.01248 27.0121C3.56515 27.4793 2.96 27.7416 2.32921 27.7416C1.69842 27.7416 1.09327 27.4793 0.645942 27.0121C0.42892 26.7722 0.260077 26.4889 0.149471 26.1791C0.0388653 25.8692 -0.0112392 25.5391 0.00214266 25.2085C0.00265861 24.5417 0.247634 23.9009 0.68618 23.4189C3.25244 20.6008 5.82317 17.7826 8.39837 14.9644L7.55338 14.2599C6.78887 13.5976 5.99753 12.9635 5.2196 12.3153L3.46257 10.9063C2.68464 10.2863 1.97378 9.55354 1.23609 8.83491C1.05531 8.65452 0.913769 8.43521 0.82117 8.192C0.72857 7.9488 0.687098 7.68744 0.699593 7.42583C0.707274 7.10433 0.79019 6.78977 0.941018 6.50992C1.14684 6.14687 1.46036 5.8648 1.83348 5.70699C2.2066 5.54918 2.61869 5.52434 3.00654 5.63629C3.68432 5.86197 4.34367 6.1447 4.97818 6.48174C5.23465 6.62722 5.45095 6.83992 5.60606 7.09917C5.76117 7.35841 5.84982 7.6554 5.8634 7.96128C7.62044 9.314 9.39089 10.6808 11.1345 12.0476L11.4162 11.7517L15.4399 7.52446C16.2313 6.66492 17.0628 5.84765 17.8944 5.01629C18.726 4.18493 19.5576 3.40994 20.416 2.63494C21.2744 1.85995 22.2401 1.07086 23.1924 0.324044C23.5433 0.112156 23.941 0.000426855 24.3458 -4.47152e-05C24.95 0.0015102 25.5289 0.254907 25.9553 0.704497C26.2214 0.93901 26.452 1.21457 26.6394 1.52177C26.7614 1.76146 26.8646 2.01123 26.9478 2.26858C27.0063 2.55585 27.0378 2.84847 27.0417 3.14221C26.9647 4.02867 26.6889 4.88336 26.237 5.63629Z" fill="black"/>
</svg>
