<svg width="62" height="45" viewBox="0 0 62 45" fill="none" xmlns="http://www.w3.org/2000/svg">
<path d="M12.9465 27.333L9.48383 31.184C8.41748 32.3725 7.32309 33.547 6.26211 34.7555C5.20113 35.964 4.69004 36.5953 3.96605 37.5201C3.70848 37.9569 3.47988 38.4057 3.28152 38.8642L2.5374 40.4392C2.38304 40.8799 2.33077 41.339 2.38398 41.7874C2.43719 42.2358 2.59469 42.6635 2.8464 43.0431C3.33386 43.8049 4.13179 44.3576 5.0838 44.593C5.735 44.7638 6.43319 44.7835 7.11565 44.6504L8.09991 44.5157C8.74058 44.35 9.32782 44.0289 9.79508 43.5886C10.2285 43.1963 10.5534 42.7193 10.7408 42.2002C10.9281 41.6811 10.9721 41.1362 10.8688 40.6141L11.3053 40.0673C12.807 38.4183 14.3756 36.8373 15.8827 35.2083L20.0324 30.6574L24.503 25.7625L28.0509 21.8672L30.7368 22.824C38.8212 25.7949 47.0202 28.649 55.15 31.6077L56.1725 31.9785C56.956 32.1475 57.7878 32.1247 58.5844 31.9126C59.4399 31.6753 60.2143 31.2209 60.8113 30.6059C61.4083 29.991 61.8016 29.2425 61.9422 28.4536C62.0829 27.6648 61.9648 26.8703 61.6025 26.1689C61.2402 25.4676 60.6498 24.8903 59.9046 24.5089C52.138 21.0015 44.0255 18.0167 36.0156 14.9614L34.7049 14.6033L42.2296 6.41828C42.9526 5.72732 43.4033 4.84739 43.5057 3.92698C43.5308 3.44461 43.4488 2.96848 43.2644 2.52649C43.08 2.0845 42.797 1.68553 42.4318 1.35298C42.0667 1.02044 41.6268 0.760987 41.1379 0.589847C40.6491 0.418706 40.1211 0.339316 39.585 0.356328C39.2001 0.371556 38.816 0.431142 38.442 0.533617C37.7527 0.694641 37.1239 1.04358 36.6443 1.53118C33.4961 4.954 30.3648 8.37946 27.2504 11.8076L7.63135 4.23259L6.47396 3.81192C5.61177 3.6546 4.70403 3.7122 3.84623 3.97867C2.57302 4.3195 1.46832 5.0876 0.768438 6.11866C0.0685582 7.14973 -0.17093 8.3619 0.101187 9.49588C0.258248 10.0701 0.549118 10.6011 0.955181 11.0549C1.36124 11.5086 1.87356 11.8752 2.45933 12.1311L20.5857 19.0313L18.264 21.6094L12.9465 27.333Z" fill="black"/>
</svg>
