<svg width="122" height="40" viewBox="0 0 122 40" fill="none" xmlns="http://www.w3.org/2000/svg">
<path d="M4.23931 37.072C5.89412 36.219 7.5507 35.7154 9.19124 35.5666C10.1137 35.4336 11.031 35.3654 11.9507 35.319C13.2706 35.261 14.5796 35.2346 15.8926 35.2629C18.3893 35.309 20.8791 35.4414 23.3655 35.6169C28.3474 36.012 33.3354 36.2775 38.3627 36.0471C43.5754 35.8097 48.7848 35.6155 53.9992 35.3565C58.9439 35.1088 63.8835 34.8714 68.8162 34.7745C73.7488 34.6776 78.6939 34.636 83.6514 34.2265C88.7275 33.8048 93.7737 33.7603 98.813 33.802C101.206 33.8291 103.612 33.803 106.039 33.2905C107.319 33.0449 108.565 32.7533 109.834 32.4417C111.103 32.1301 112.308 31.9763 113.547 31.7816C114.677 31.6327 115.794 31.7213 116.887 32.0466C117.272 31.9909 117.662 31.6945 118.022 31.1838C118.382 30.6731 118.701 29.9639 118.952 29.119C119.269 27.9836 119.581 26.8586 119.893 25.7228C120.542 22.7317 120.997 19.5637 121.237 16.3603C121.504 13.1592 121.554 9.95938 121.386 6.90304C121.255 5.74293 121.125 4.57204 120.991 3.40083C120.874 2.54329 120.67 1.80816 120.397 1.25915C120.123 0.710129 119.788 0.363789 119.422 0.250138C118.793 0.330466 118.146 0.441806 117.544 0.502564C116.943 0.563322 116.413 0.510481 115.865 0.477873C114.663 0.382489 113.454 0.416781 112.245 0.451073C109.718 0.521825 107.209 0.745798 104.7 0.742092C99.8353 0.725045 94.9962 0.384634 90.1148 0.73506C87.495 0.917755 84.8742 1.16545 82.2551 1.33737C79.8767 1.49583 77.5077 1.53572 75.1345 1.57528C70.0852 1.65929 65.0277 1.84751 59.9618 2.13991C54.9687 2.41639 49.9748 2.64943 44.9808 2.93668C42.2195 3.10093 39.4586 3.24351 36.6979 3.36442C34.2277 3.46137 31.7697 3.29896 29.3166 3.18033C24.2953 2.91224 19.2764 2.61182 14.2046 2.97967C12.9582 3.06521 11.7058 3.2262 10.4481 3.50608C9.42612 3.72873 8.39388 4.08073 7.36979 4.54184C6.57838 4.94632 5.7889 5.45578 5.00476 6.06803C4.5408 6.40888 4.08698 6.90588 3.6564 7.54469C2.81028 8.9672 2.11395 10.9442 1.66059 13.211C0.651677 17.8384 0.0976492 22.8519 0.0529435 27.759C-0.0166844 30.5854 0.150547 33.3149 0.543764 35.7701L1.22277 38.1235C1.46624 38.6883 1.78902 39.008 2.14421 39.0361C2.49941 39.0643 2.86854 38.7995 3.19799 38.2801C3.5331 37.7897 3.88224 37.3846 4.23931 37.072Z" fill="#124BDC"/>
</svg>
