<svg width="195" height="50" viewBox="0 0 195 50" fill="none" xmlns="http://www.w3.org/2000/svg">
<path d="M66.864 31.2242C65.7547 31.2242 64.8213 30.9788 64.064 30.4882C63.3067 29.9868 62.7733 29.3095 62.464 28.4562L64.352 27.3522C64.7893 28.4935 65.648 29.0642 66.928 29.0642C67.5467 29.0642 68 28.9522 68.288 28.7282C68.576 28.5042 68.72 28.2215 68.72 27.8802C68.72 27.4855 68.544 27.1815 68.192 26.9682C67.84 26.7442 67.2107 26.5042 66.304 26.2482C65.8027 26.0988 65.376 25.9495 65.024 25.8002C64.6827 25.6508 64.336 25.4535 63.984 25.2082C63.6427 24.9522 63.3813 24.6322 63.2 24.2482C63.0187 23.8642 62.928 23.4162 62.928 22.9042C62.928 21.8908 63.2853 21.0855 64 20.4882C64.7253 19.8802 65.5947 19.5762 66.608 19.5762C67.5147 19.5762 68.3093 19.8002 68.992 20.2482C69.6853 20.6855 70.224 21.2988 70.608 22.0882L68.752 23.1602C68.304 22.2002 67.5893 21.7202 66.608 21.7202C66.1493 21.7202 65.7867 21.8268 65.52 22.0402C65.264 22.2428 65.136 22.5095 65.136 22.8402C65.136 23.1922 65.28 23.4802 65.568 23.7042C65.8667 23.9175 66.432 24.1522 67.264 24.4082C67.6053 24.5148 67.8613 24.6002 68.032 24.6642C68.2133 24.7175 68.4533 24.8082 68.752 24.9362C69.0613 25.0535 69.296 25.1655 69.456 25.2722C69.6267 25.3788 69.8187 25.5228 70.032 25.7042C70.2453 25.8855 70.4053 26.0722 70.512 26.2642C70.6293 26.4562 70.7253 26.6908 70.8 26.9682C70.8853 27.2348 70.928 27.5282 70.928 27.8482C70.928 28.8828 70.5493 29.7042 69.792 30.3122C69.0453 30.9202 68.0693 31.2242 66.864 31.2242Z" fill="#201F1F"/>
<path d="M83.89 19.8002V31.0002H81.698V23.7362L78.546 28.9362H78.29L75.138 23.7522V31.0002H72.93V19.8002H75.202L78.418 25.0962L81.618 19.8002H83.89Z" fill="#201F1F"/>
<path d="M90.269 31.2242C89.1597 31.2242 88.2263 30.9788 87.469 30.4882C86.7117 29.9868 86.1783 29.3095 85.869 28.4562L87.757 27.3522C88.1943 28.4935 89.053 29.0642 90.333 29.0642C90.9517 29.0642 91.405 28.9522 91.693 28.7282C91.981 28.5042 92.125 28.2215 92.125 27.8802C92.125 27.4855 91.949 27.1815 91.597 26.9682C91.245 26.7442 90.6157 26.5042 89.709 26.2482C89.2077 26.0988 88.781 25.9495 88.429 25.8002C88.0877 25.6508 87.741 25.4535 87.389 25.2082C87.0477 24.9522 86.7863 24.6322 86.605 24.2482C86.4237 23.8642 86.333 23.4162 86.333 22.9042C86.333 21.8908 86.6903 21.0855 87.405 20.4882C88.1303 19.8802 88.9997 19.5762 90.013 19.5762C90.9197 19.5762 91.7143 19.8002 92.397 20.2482C93.0903 20.6855 93.629 21.2988 94.013 22.0882L92.157 23.1602C91.709 22.2002 90.9943 21.7202 90.013 21.7202C89.5543 21.7202 89.1917 21.8268 88.925 22.0402C88.669 22.2428 88.541 22.5095 88.541 22.8402C88.541 23.1922 88.685 23.4802 88.973 23.7042C89.2717 23.9175 89.837 24.1522 90.669 24.4082C91.0103 24.5148 91.2663 24.6002 91.437 24.6642C91.6183 24.7175 91.8583 24.8082 92.157 24.9362C92.4663 25.0535 92.701 25.1655 92.861 25.2722C93.0317 25.3788 93.2237 25.5228 93.437 25.7042C93.6503 25.8855 93.8103 26.0722 93.917 26.2642C94.0343 26.4562 94.1303 26.6908 94.205 26.9682C94.2903 27.2348 94.333 27.5282 94.333 27.8482C94.333 28.8828 93.9543 29.7042 93.197 30.3122C92.4503 30.9202 91.4743 31.2242 90.269 31.2242Z" fill="#201F1F"/>
<path d="M96.2413 27.1602V25.1762H102.241V27.1602H96.2413Z" fill="#201F1F"/>
<path d="M104.959 19.8002H107.167V31.0002H104.959V19.8002Z" fill="#201F1F"/>
<path d="M120.841 19.8002V31.0002H118.649V23.7362L115.497 28.9362H115.241L112.089 23.7522V31.0002H109.881V19.8002H112.153L115.369 25.0962L118.569 19.8002H120.841Z" fill="#201F1F"/>
<path d="M127.744 19.8002C128.821 19.8002 129.728 20.1628 130.464 20.8882C131.2 21.6135 131.568 22.5042 131.568 23.5602C131.568 24.6162 131.2 25.5068 130.464 26.2322C129.728 26.9575 128.821 27.3202 127.744 27.3202H125.776V31.0002H123.568V19.8002H127.744ZM127.744 25.2562C128.213 25.2562 128.602 25.0962 128.912 24.7762C129.221 24.4455 129.376 24.0402 129.376 23.5602C129.376 23.0695 129.221 22.6642 128.912 22.3442C128.602 22.0242 128.213 21.8642 127.744 21.8642H125.776V25.2562H127.744Z" fill="#201F1F"/>
<path d="M135.853 28.8882H140.573V31.0002H133.645V19.8002H140.493V21.9122H135.853V24.2962H140.093V26.3762H135.853V28.8882Z" fill="#201F1F"/>
<path d="M148.913 31.0002L146.657 27.1122H144.977V31.0002H142.769V19.8002H147.249C148.284 19.8002 149.164 20.1628 149.889 20.8882C150.615 21.6135 150.977 22.4882 150.977 23.5122C150.977 24.2055 150.78 24.8508 150.385 25.4482C149.991 26.0348 149.468 26.4775 148.817 26.7762L151.297 31.0002H148.913ZM144.977 21.8642V25.1762H147.249C147.665 25.1762 148.023 25.0162 148.321 24.6962C148.62 24.3655 148.769 23.9708 148.769 23.5122C148.769 23.0535 148.62 22.6642 148.321 22.3442C148.023 22.0242 147.665 21.8642 147.249 21.8642H144.977Z" fill="#201F1F"/>
<path d="M160.438 31.0002L159.766 28.9842H155.302L154.63 31.0002H152.246L156.166 19.8002H158.902L162.838 31.0002H160.438ZM156.006 26.9202H159.078L157.542 22.3442L156.006 26.9202Z" fill="#201F1F"/>
<path d="M171.161 19.8002V21.9122H168.137V31.0002H165.929V21.9122H162.921V19.8002H171.161Z" fill="#201F1F"/>
<path d="M181.817 29.5442C180.686 30.6642 179.31 31.2242 177.689 31.2242C176.067 31.2242 174.691 30.6642 173.561 29.5442C172.441 28.4135 171.881 27.0322 171.881 25.4002C171.881 23.7682 172.441 22.3922 173.561 21.2722C174.691 20.1415 176.067 19.5762 177.689 19.5762C179.31 19.5762 180.686 20.1415 181.817 21.2722C182.947 22.3922 183.513 23.7682 183.513 25.4002C183.513 27.0322 182.947 28.4135 181.817 29.5442ZM175.113 28.0402C175.806 28.7228 176.665 29.0642 177.689 29.0642C178.713 29.0642 179.571 28.7228 180.265 28.0402C180.958 27.3468 181.305 26.4668 181.305 25.4002C181.305 24.3335 180.958 23.4535 180.265 22.7602C179.571 22.0668 178.713 21.7202 177.689 21.7202C176.665 21.7202 175.806 22.0668 175.113 22.7602C174.419 23.4535 174.073 24.3335 174.073 25.4002C174.073 26.4668 174.419 27.3468 175.113 28.0402Z" fill="#201F1F"/>
<path d="M191.848 31.0002L189.592 27.1122H187.912V31.0002H185.704V19.8002H190.184C191.219 19.8002 192.099 20.1628 192.824 20.8882C193.55 21.6135 193.912 22.4882 193.912 23.5122C193.912 24.2055 193.715 24.8508 193.32 25.4482C192.926 26.0348 192.403 26.4775 191.752 26.7762L194.232 31.0002H191.848ZM187.912 21.8642V25.1762H190.184C190.6 25.1762 190.958 25.0162 191.256 24.6962C191.555 24.3655 191.704 23.9708 191.704 23.5122C191.704 23.0535 191.555 22.6642 191.256 22.3442C190.958 22.0242 190.6 21.8642 190.184 21.8642H187.912Z" fill="#201F1F"/>
<path d="M13.1439 7.00029C11.4328 7.55205 10.0939 8.15791 8.44424 9.36846C8.23037 9.57324 8.0207 9.78057 7.81533 9.99404C7.83877 10.0493 7.8749 10.1176 7.92832 10.2138C8.02754 10.3927 8.19853 10.6066 8.41367 10.8183C8.07637 11.3589 7.76953 11.8995 7.48594 12.4417C7.12812 12.1448 6.80703 11.8145 6.54902 11.4437C5.80517 12.3719 5.13545 13.3653 4.55312 14.4163C4.5917 14.5761 4.70518 14.7503 4.92227 14.9837C5.18164 15.2623 5.58682 15.5501 6.05762 15.7956C5.85996 16.393 5.69043 16.9874 5.55117 17.5808C4.82461 17.2507 4.16006 16.8222 3.63769 16.2777C3.05762 17.6258 2.61494 19.0531 2.32852 20.541C2.45889 20.7787 2.69121 20.9964 3.04258 21.2277C3.53789 21.5539 4.24961 21.8211 5.02324 21.9755C5.01885 22.6041 5.04766 23.2276 5.10254 23.8431C3.98857 23.6797 2.91455 23.3306 2.03857 22.7536C2.03369 22.7503 2.02822 22.7478 2.02334 22.7444C1.89541 24.2669 1.93818 25.7679 2.13008 27.2274C2.35566 27.5673 2.7332 27.8092 3.2958 28.0026C4.01904 28.2513 5.00205 28.3292 6.00283 28.2284C6.19814 28.8263 6.42031 29.413 6.66787 29.9862C5.30361 30.1911 3.91035 30.1446 2.70371 29.7299C2.6708 29.7186 2.63877 29.7053 2.60605 29.6933C2.99453 31.206 3.54941 32.6591 4.25098 34.0298C4.59795 34.3036 5.06641 34.4415 5.68848 34.4845C6.59668 34.5474 7.75332 34.3155 8.85625 33.865C9.21875 34.3784 9.60137 34.8748 10.0037 35.3543C8.58086 36.0101 7.03887 36.3968 5.60303 36.3064C6.5749 37.7324 7.71611 39.0373 9.00576 40.1883C9.42178 40.3295 9.91396 40.3313 10.5071 40.2156C11.4446 40.0327 12.5437 39.4926 13.5374 38.7508C13.5382 38.7513 13.5399 38.7503 13.5405 38.7508C14.0438 39.1393 14.5636 39.5076 15.0938 39.8494C13.9243 40.8172 12.5914 41.5775 11.2335 41.9217C12.3716 42.6912 13.5917 43.3543 14.8803 43.893C15.3624 43.9343 15.8852 43.7992 16.4764 43.5115C17.2256 43.1468 18.0174 42.5104 18.7254 41.7264C20.3891 42.3888 22.1172 42.8221 23.8585 42.9866L24.0323 41.1678C22.639 41.0359 21.2409 40.702 19.8759 40.1973C20.548 39.1125 21.0097 37.9343 21.1395 36.9319C21.2546 36.0419 21.1477 35.3541 20.7702 34.8384C19.9811 34.6841 19.2185 34.4536 18.4875 34.1548C18.4707 34.7866 18.3209 35.423 18.0754 36.0194C17.7097 36.9084 17.1457 37.7575 16.4611 38.5312C15.9384 38.2101 15.4294 37.864 14.9321 37.4936C15.5786 36.7922 16.0965 36.0316 16.3878 35.3236C16.7595 34.4207 16.7953 33.7047 16.4488 33.0961C15.6922 32.612 14.9837 32.0476 14.3279 31.4145C14.1548 31.8344 13.919 32.2318 13.6412 32.5955C13.1064 33.2952 12.4135 33.9148 11.6331 34.4417C11.2308 33.9808 10.8468 33.5039 10.4856 33.0073C11.1841 32.5489 11.7841 32.021 12.1917 31.4876C12.6837 30.8437 12.8968 30.2757 12.8233 29.7206C12.3374 29.0807 11.8962 28.3942 11.505 27.6698C11.2818 27.9321 11.0304 28.1718 10.7572 28.3811C10.0973 28.8864 9.31211 29.2751 8.47148 29.5559C8.21807 29.0002 7.9874 28.433 7.78789 27.853C8.51318 27.6182 9.16777 27.298 9.64629 26.9314C10.2025 26.5055 10.5059 26.097 10.5771 25.6375C10.2812 24.8564 10.0393 24.0438 9.8539 23.2051C9.67051 23.3101 9.48086 23.4027 9.28633 23.4798C8.55879 23.7676 7.74824 23.9128 6.91523 23.9437C6.85058 23.3421 6.81494 22.7324 6.81435 22.1155C7.49375 22.0898 8.1292 21.9752 8.61514 21.783C9.06435 21.6053 9.35683 21.4119 9.52754 21.1727C9.42812 20.2234 9.39766 19.2498 9.44814 18.2612C9.38467 18.2714 9.32217 18.2788 9.25888 18.2856C8.61201 18.3564 7.93506 18.3003 7.26611 18.1545C7.3999 17.5705 7.56592 16.9816 7.76357 16.3905C8.23916 16.4816 8.69502 16.51 9.06045 16.47C9.31572 16.4421 9.50303 16.3962 9.64639 16.3327C9.78262 15.4606 9.9791 14.6097 10.2294 13.7905C9.82099 13.7187 9.42041 13.5862 9.0331 13.4121C9.30986 12.8792 9.61181 12.3449 9.9456 11.8101C10.1813 11.9041 10.4062 11.9727 10.5986 12.0024C10.7067 12.019 10.7962 12.0283 10.8703 12.0298C11.0603 11.5767 11.2631 11.1343 11.4838 10.7053C12.0598 9.55273 12.6962 8.33711 13.1439 7.00049V7.00029ZM37.0087 7.00029C37.4562 8.33682 38.0927 9.55254 38.6688 10.7052C38.8895 11.1342 39.0952 11.5766 39.2851 12.0296C39.3585 12.028 39.4472 12.0186 39.5536 12.0022C39.747 11.9724 39.9731 11.9046 40.2099 11.8099C40.5436 12.3447 40.8456 12.879 41.1224 13.412C40.7341 13.5864 40.3317 13.7187 39.9231 13.7905C40.1734 14.6099 40.3697 15.4604 40.5059 16.3325C40.6498 16.3968 40.8383 16.4419 41.095 16.47C41.4604 16.5101 41.9163 16.4817 42.3919 16.3906C42.5897 16.9827 42.7524 17.5727 42.8863 18.1577C42.2186 18.3029 41.5424 18.3565 40.8966 18.2859C40.8325 18.2789 40.7688 18.2718 40.7045 18.2615C40.755 19.2502 40.7275 20.2236 40.6281 21.1729C40.799 21.4121 41.0915 21.6055 41.5407 21.7832C42.0258 21.9751 42.6601 22.0898 43.3382 22.1158C43.3376 22.7326 43.302 23.3424 43.2376 23.9439C42.4056 23.9127 41.5962 23.7674 40.8694 23.4801C40.6747 23.4029 40.4853 23.3102 40.3018 23.2053C40.1167 24.0427 39.8737 24.8547 39.5785 25.6345C39.6483 26.0954 39.9491 26.5048 40.5062 26.9315C40.9852 27.298 41.6395 27.6181 42.3649 27.853C42.1653 28.4331 41.9348 29.0002 41.6813 29.556C40.8417 29.2752 40.0579 28.8858 39.3986 28.3812C39.1248 28.1714 38.8713 27.9327 38.6478 27.6699C38.2562 28.3947 37.8158 29.0805 37.3295 29.7207C37.2553 30.2756 37.4691 30.8439 37.9613 31.4878C38.3684 32.0207 38.9685 32.5493 39.6671 33.0076C39.306 33.5042 38.922 33.9809 38.5196 34.4419C37.7393 33.9149 37.0464 33.2954 36.5116 32.5956C36.2345 32.2328 36.0005 31.836 35.828 31.4175C35.1727 32.0501 34.4632 32.6124 33.7069 33.096C33.3605 33.7047 33.3964 34.4207 33.7681 35.3237C34.0596 36.0317 34.5774 36.7922 35.2239 37.4937C34.7264 37.8643 34.2148 38.2099 33.6919 38.5312C33.008 37.7575 32.4464 36.9084 32.0806 36.0194C31.8352 35.4231 31.6853 34.7867 31.6685 34.155C30.9363 34.4542 30.173 34.6841 29.3828 34.8386C29.0046 35.3542 28.8984 36.0421 29.0137 36.932C29.1433 37.9344 29.6074 39.1127 30.28 40.1975C28.9153 40.7022 27.517 41.036 26.1235 41.1679L26.2944 42.9867C28.0366 42.822 29.7657 42.3895 31.4306 41.7264C32.1386 42.5104 32.9304 43.1468 33.6796 43.5115C34.271 43.7993 34.7936 43.9344 35.2758 43.893C36.5648 43.3542 37.784 42.6916 38.9225 41.9216C37.5654 41.5778 36.2309 40.8187 35.0621 39.8522C35.5936 39.5101 36.1109 39.14 36.6154 38.7507C37.6096 39.4933 38.7107 40.0325 39.6488 40.2155C40.2402 40.331 40.7318 40.3312 41.1473 40.1911C42.4375 39.0399 43.5809 37.7329 44.553 36.3063C43.117 36.3967 41.572 36.01 40.1492 35.3542C40.5516 34.8744 40.9369 34.3786 41.2996 33.8649C42.4026 34.3151 43.5592 34.5472 44.4676 34.4843C45.0894 34.4413 45.558 34.3034 45.9048 34.0296C46.6062 32.6589 47.1613 31.2057 47.5497 29.6931C47.517 29.7051 47.485 29.7185 47.452 29.7297C46.2455 30.1444 44.8521 30.1909 43.4878 29.986C43.7354 29.4128 43.9578 28.8261 44.1531 28.2282C45.1527 28.3285 46.1346 28.2507 46.857 28.0023C47.42 27.809 47.7994 27.5673 48.0258 27.2272C48.2177 25.7677 48.2574 24.2665 48.1297 22.7442C48.1255 22.747 48.1217 22.7506 48.1175 22.7534C47.2415 23.3304 46.1673 23.6795 45.0534 23.8429C45.1084 23.2274 45.137 22.6039 45.1327 21.9752C45.9061 21.8207 46.6181 21.5536 47.1132 21.2274C47.4641 20.9964 47.6938 20.7778 47.8244 20.5407C47.5379 19.053 47.0949 17.6255 46.515 16.2775C45.9929 16.8215 45.3302 17.2502 44.6047 17.5807C44.4653 16.9871 44.2959 16.3927 44.098 15.7953C44.5673 15.5499 44.9713 15.2617 45.2303 14.9835C45.4463 14.7515 45.5625 14.5782 45.6026 14.419C45.0196 13.3669 44.3513 12.3727 43.6065 11.4435C43.3485 11.8142 43.0274 12.1446 42.6698 12.4415C42.3861 11.8992 42.0793 11.3585 41.7421 10.8179C41.9577 10.6063 42.1281 10.3921 42.2272 10.2134C42.2798 10.1187 42.3171 10.0517 42.3401 9.99678C42.1345 9.78262 41.9226 9.57354 41.7085 9.36816C40.0588 8.15762 38.7199 7.55176 37.0088 7L37.0087 7.00029Z" fill="#124BDC"/>
<g clip-path="url(#clip0_71_38)">
<path d="M25 29.1668C30.0626 29.1668 34.1667 25.0627 34.1667 20.0002C34.1667 14.9376 30.0626 10.8335 25 10.8335C19.9374 10.8335 15.8333 14.9376 15.8333 20.0002C15.8333 21.4666 16.1776 22.8525 16.7898 24.0816C16.9525 24.4082 17.0067 24.7816 16.9124 25.134L16.3664 27.1746C16.1294 28.0604 16.9398 28.8707 17.8256 28.6338L19.8661 28.0878C20.2186 27.9935 20.5919 28.0477 20.9186 28.2103C22.1477 28.8225 23.5336 29.1668 25 29.1668Z" stroke="#124BDC" stroke-width="1.8"/>
<path d="M22.25 20.0732L24.0833 21.8332L27.75 18.1665" stroke="#124BDC" stroke-width="1.8" stroke-linecap="round" stroke-linejoin="round"/>
</g>
<defs>
<clipPath id="clip0_71_38">
<rect width="22" height="22" fill="white" transform="translate(14 9)"/>
</clipPath>
</defs>
</svg>
