<svg width="110" height="29" viewBox="0 0 110 29" fill="none" xmlns="http://www.w3.org/2000/svg">
<path d="M37.8672 17.6831C37.239 17.6831 36.7104 17.5441 36.2815 17.2662C35.8526 16.9823 35.5506 16.5987 35.3754 16.1155L36.4446 15.4902C36.6923 16.1366 37.1786 16.4598 37.9035 16.4598C38.2538 16.4598 38.5106 16.3964 38.6737 16.2695C38.8368 16.1426 38.9183 15.9826 38.9183 15.7892C38.9183 15.5657 38.8187 15.3936 38.6193 15.2728C38.42 15.1459 38.0636 15.01 37.5501 14.865C37.2662 14.7804 37.0245 14.6958 36.8252 14.6113C36.6319 14.5267 36.4355 14.4149 36.2362 14.276C36.0429 14.131 35.8949 13.9498 35.7922 13.7323C35.6895 13.5149 35.6381 13.2611 35.6381 12.9712C35.6381 12.3973 35.8405 11.9412 36.2453 11.6029C36.656 11.2586 37.1484 11.0864 37.7222 11.0864C38.2357 11.0864 38.6858 11.2133 39.0724 11.467C39.465 11.7147 39.7701 12.062 39.9876 12.5091L38.9365 13.1162C38.6827 12.5725 38.278 12.3006 37.7222 12.3006C37.4625 12.3006 37.2571 12.3611 37.1061 12.4819C36.9611 12.5966 36.8886 12.7477 36.8886 12.9349C36.8886 13.1343 36.9702 13.2974 37.1333 13.4242C37.3024 13.5451 37.6226 13.678 38.0938 13.8229C38.2871 13.8834 38.432 13.9317 38.5287 13.9679C38.6314 13.9981 38.7673 14.0495 38.9365 14.122C39.1116 14.1884 39.2445 14.2518 39.3352 14.3123C39.4318 14.3727 39.5405 14.4542 39.6614 14.5569C39.7822 14.6596 39.8728 14.7653 39.9332 14.8741C39.9997 14.9828 40.054 15.1157 40.0963 15.2728C40.1446 15.4238 40.1688 15.5899 40.1688 15.7711C40.1688 16.3571 39.9543 16.8222 39.5254 17.1666C39.1026 17.5109 38.5498 17.6831 37.8672 17.6831Z" fill="white"/>
<path d="M47.5096 11.2133V17.5562H46.2682V13.4424L44.4831 16.3873H44.3381L42.5531 13.4514V17.5562H41.3026V11.2133H42.5893L44.4106 14.2126L46.2229 11.2133H47.5096Z" fill="white"/>
<path d="M51.1222 17.6831C50.494 17.6831 49.9654 17.5441 49.5365 17.2662C49.1076 16.9823 48.8056 16.5987 48.6304 16.1155L49.6996 15.4902C49.9473 16.1366 50.4336 16.4598 51.1585 16.4598C51.5088 16.4598 51.7656 16.3964 51.9287 16.2695C52.0918 16.1426 52.1733 15.9826 52.1733 15.7892C52.1733 15.5657 52.0737 15.3936 51.8743 15.2728C51.675 15.1459 51.3186 15.01 50.8051 14.865C50.5212 14.7804 50.2795 14.6958 50.0802 14.6113C49.8869 14.5267 49.6905 14.4149 49.4912 14.276C49.2979 14.131 49.1499 13.9498 49.0472 13.7323C48.9445 13.5149 48.8931 13.2611 48.8931 12.9712C48.8931 12.3973 49.0955 11.9412 49.5003 11.6029C49.911 11.2586 50.4034 11.0864 50.9772 11.0864C51.4907 11.0864 51.9408 11.2133 52.3274 11.467C52.72 11.7147 53.0251 12.062 53.2426 12.5091L52.1915 13.1162C51.9377 12.5725 51.533 12.3006 50.9772 12.3006C50.7175 12.3006 50.5121 12.3611 50.3611 12.4819C50.2161 12.5966 50.1436 12.7477 50.1436 12.9349C50.1436 13.1343 50.2252 13.2974 50.3883 13.4242C50.5574 13.5451 50.8776 13.678 51.3488 13.8229C51.5421 13.8834 51.687 13.9317 51.7837 13.9679C51.8864 13.9981 52.0223 14.0495 52.1915 14.122C52.3666 14.1884 52.4995 14.2518 52.5902 14.3123C52.6868 14.3727 52.7955 14.4542 52.9164 14.5569C53.0372 14.6596 53.1278 14.7653 53.1882 14.8741C53.2547 14.9828 53.309 15.1157 53.3513 15.2728C53.3996 15.4238 53.4238 15.5899 53.4238 15.7711C53.4238 16.3571 53.2094 16.8222 52.7804 17.1666C52.3576 17.5109 51.8048 17.6831 51.1222 17.6831Z" fill="white"/>
<path d="M54.5045 15.3815V14.2579H57.9025V15.3815H54.5045Z" fill="white"/>
<path d="M59.4419 11.2133H60.6923V17.5562H59.4419V11.2133Z" fill="white"/>
<path d="M68.4359 11.2133V17.5562H67.1945V13.4424L65.4094 16.3873H65.2645L63.4794 13.4514V17.5562H62.2289V11.2133H63.5156L65.3369 14.2126L67.1492 11.2133H68.4359Z" fill="white"/>
<path d="M72.3452 11.2133C72.9554 11.2133 73.4688 11.4187 73.8857 11.8295C74.3025 12.2402 74.5109 12.7446 74.5109 13.3427C74.5109 13.9407 74.3025 14.4452 73.8857 14.8559C73.4688 15.2667 72.9554 15.4721 72.3452 15.4721H71.2307V17.5562H69.9802V11.2133H72.3452ZM72.3452 14.3032C72.611 14.3032 72.8315 14.2126 73.0067 14.0314C73.1819 13.8441 73.2695 13.6145 73.2695 13.3427C73.2695 13.0648 73.1819 12.8353 73.0067 12.654C72.8315 12.4728 72.611 12.3822 72.3452 12.3822H71.2307V14.3032H72.3452Z" fill="white"/>
<path d="M76.9379 16.3601H79.611V17.5562H75.6874V11.2133H79.5657V12.4094H76.9379V13.7595H79.3392V14.9375H76.9379V16.3601Z" fill="white"/>
<path d="M84.3344 17.5562L83.0568 15.3543H82.1053V17.5562H80.8549V11.2133H83.392C83.978 11.2133 84.4764 11.4187 84.8872 11.8295C85.2979 12.2402 85.5033 12.7356 85.5033 13.3155C85.5033 13.7082 85.3916 14.0736 85.1681 14.4119C84.9445 14.7442 84.6485 14.9949 84.28 15.164L85.6846 17.5562H84.3344ZM82.1053 12.3822V14.2579H83.392C83.6276 14.2579 83.83 14.1673 83.9991 13.986C84.1683 13.7988 84.2529 13.5753 84.2529 13.3155C84.2529 13.0558 84.1683 12.8353 83.9991 12.654C83.83 12.4728 83.6276 12.3822 83.392 12.3822H82.1053Z" fill="white"/>
<path d="M90.8609 17.5562L90.4803 16.4145H87.9522L87.5716 17.5562H86.2215L88.4415 11.2133H89.991L92.2201 17.5562H90.8609ZM88.3509 15.2456H90.0907L89.2208 12.654L88.3509 15.2456Z" fill="white"/>
<path d="M96.9337 11.2133V12.4094H95.2211V17.5562H93.9706V12.4094H92.2671V11.2133H96.9337Z" fill="white"/>
<path d="M102.969 16.7316C102.328 17.3659 101.549 17.6831 100.631 17.6831C99.7125 17.6831 98.9332 17.3659 98.2929 16.7316C97.6586 16.0913 97.3414 15.309 97.3414 14.3847C97.3414 13.4605 97.6586 12.6812 98.2929 12.0469C98.9332 11.4066 99.7125 11.0864 100.631 11.0864C101.549 11.0864 102.328 11.4066 102.969 12.0469C103.609 12.6812 103.929 13.4605 103.929 14.3847C103.929 15.309 103.609 16.0913 102.969 16.7316ZM99.1718 15.8799C99.5645 16.2665 100.051 16.4598 100.631 16.4598C101.211 16.4598 101.697 16.2665 102.09 15.8799C102.482 15.4872 102.679 14.9888 102.679 14.3847C102.679 13.7807 102.482 13.2823 102.09 12.8896C101.697 12.497 101.211 12.3006 100.631 12.3006C100.051 12.3006 99.5645 12.497 99.1718 12.8896C98.7792 13.2823 98.5828 13.7807 98.5828 14.3847C98.5828 14.9888 98.7792 15.4872 99.1718 15.8799Z" fill="white"/>
<path d="M108.65 17.5562L107.372 15.3543H106.421V17.5562H105.17V11.2133H107.707C108.293 11.2133 108.792 11.4187 109.203 11.8295C109.613 12.2402 109.819 12.7356 109.819 13.3155C109.819 13.7082 109.707 14.0736 109.484 14.4119C109.26 14.7442 108.964 14.9949 108.596 15.164L110 17.5562H108.65ZM106.421 12.3822V14.2579H107.707C107.943 14.2579 108.145 14.1673 108.315 13.986C108.484 13.7988 108.568 13.5753 108.568 13.3155C108.568 13.0558 108.484 12.8353 108.315 12.654C108.145 12.4728 107.943 12.3822 107.707 12.3822H106.421Z" fill="white"/>
<path d="M7.44383 3.96452C6.47477 4.277 5.71652 4.62012 4.78224 5.30569C4.66112 5.42166 4.54238 5.53908 4.42607 5.65998C4.43934 5.69128 4.45981 5.72994 4.49006 5.78442C4.54625 5.88574 4.64309 6.00691 4.76493 6.12676C4.5739 6.43293 4.40013 6.73911 4.23952 7.04616C4.03688 6.87803 3.85504 6.69093 3.70892 6.48094C3.28766 7.00662 2.90837 7.56925 2.57858 8.16445C2.60043 8.25493 2.66469 8.35359 2.78764 8.48577C2.93453 8.64356 3.16399 8.80655 3.43062 8.94559C3.31868 9.28389 3.22267 9.62054 3.14381 9.95658C2.73233 9.76964 2.35597 9.52696 2.06014 9.21863C1.73163 9.98208 1.48092 10.7904 1.31871 11.6331C1.39255 11.7677 1.52412 11.891 1.72311 12.022C2.00362 12.2067 2.40669 12.358 2.84482 12.4455C2.84233 12.8015 2.85865 13.1546 2.88973 13.5031C2.25886 13.4106 1.6506 13.2129 1.15451 12.8861C1.15174 12.8842 1.14865 12.8828 1.14588 12.8809C1.07343 13.7431 1.09765 14.5932 1.20633 15.4198C1.33409 15.6123 1.5479 15.7493 1.86652 15.8588C2.27611 15.9996 2.83282 16.0438 3.39959 15.9867C3.51021 16.3253 3.63603 16.6575 3.77623 16.9822C3.00361 17.0982 2.21456 17.0719 1.5312 16.837C1.51256 16.8306 1.49442 16.8231 1.47589 16.8163C1.6959 17.673 2.01015 18.4959 2.40746 19.2722C2.60397 19.4273 2.86927 19.5054 3.22157 19.5297C3.73591 19.5653 4.39095 19.434 5.01558 19.1789C5.22087 19.4696 5.43756 19.7507 5.66542 20.0223C4.85961 20.3937 3.98633 20.6127 3.17317 20.5615C3.72358 21.3691 4.36988 22.1081 5.10025 22.7599C5.33585 22.8399 5.61459 22.841 5.95052 22.7754C6.48146 22.6718 7.10393 22.3659 7.66666 21.9458C7.6671 21.9461 7.6681 21.9456 7.66843 21.9458C7.95348 22.1658 8.24782 22.3745 8.54813 22.568C7.88578 23.1161 7.13091 23.5467 6.36189 23.7416C7.00642 24.1774 7.69741 24.553 8.42717 24.858C8.70022 24.8814 8.99627 24.8049 9.33109 24.642C9.7554 24.4354 10.2038 24.075 10.6048 23.631C11.547 24.0061 12.5257 24.2515 13.5118 24.3447L13.6103 23.3147C12.8212 23.24 12.0294 23.0508 11.2563 22.765C11.637 22.1507 11.8984 21.4834 11.972 20.9158C12.0372 20.4117 11.9766 20.0222 11.7628 19.7301C11.316 19.6427 10.884 19.5122 10.4701 19.343C10.4605 19.7008 10.3757 20.0612 10.2367 20.399C10.0295 20.9024 9.71016 21.3833 9.32246 21.8215C9.02641 21.6396 8.73816 21.4436 8.45654 21.2338C8.82266 20.8366 9.11595 20.4059 9.28093 20.0049C9.49142 19.4936 9.51172 19.0881 9.3155 18.7434C8.88699 18.4693 8.48574 18.1496 8.11436 17.791C8.01631 18.0289 7.8828 18.254 7.72545 18.4599C7.4226 18.8562 7.03015 19.2071 6.5882 19.5055C6.36034 19.2444 6.14288 18.9744 5.93835 18.6931C6.3339 18.4335 6.6737 18.1345 6.90455 17.8325C7.18318 17.4678 7.30386 17.1461 7.26227 16.8318C6.98706 16.4693 6.73719 16.0806 6.51564 15.6703C6.38926 15.8189 6.24685 15.9546 6.09216 16.0731C5.7184 16.3593 5.27374 16.5795 4.79767 16.7385C4.65415 16.4238 4.52352 16.1026 4.41053 15.7741C4.82129 15.6411 5.192 15.4598 5.463 15.2522C5.77802 15.0109 5.9498 14.7796 5.99018 14.5194C5.8226 14.077 5.68555 13.6168 5.58058 13.1418C5.47672 13.2013 5.36931 13.2537 5.25914 13.2974C4.84712 13.4604 4.38808 13.5426 3.91632 13.5601C3.8797 13.2194 3.85952 12.8741 3.85919 12.5248C4.24395 12.5102 4.60382 12.4453 4.87903 12.3364C5.13343 12.2358 5.29907 12.1263 5.39575 11.9908C5.33945 11.4532 5.32219 10.9018 5.35079 10.3419C5.31484 10.3477 5.27944 10.3519 5.2436 10.3558C4.87726 10.3959 4.49388 10.3641 4.11503 10.2815C4.1908 9.95077 4.28482 9.61728 4.39676 9.28251C4.6661 9.33411 4.92427 9.35015 5.13122 9.32753C5.27579 9.31171 5.38187 9.28572 5.46306 9.24977C5.54021 8.75589 5.65148 8.27395 5.79323 7.81005C5.56194 7.76934 5.33508 7.69435 5.11574 7.59574C5.27247 7.29393 5.44348 6.99136 5.63251 6.68845C5.76602 6.7417 5.89334 6.78053 6.00234 6.7974C6.06357 6.8068 6.11423 6.81205 6.1562 6.81288C6.26383 6.55626 6.37864 6.30573 6.50364 6.06277C6.82983 5.41005 7.19026 4.7216 7.44383 3.96463V3.96452ZM20.9592 3.96452C21.2127 4.72144 21.5731 5.40994 21.8994 6.06272C22.0244 6.30567 22.1409 6.55621 22.2484 6.81277C22.29 6.81189 22.3402 6.80652 22.4005 6.79729C22.51 6.78036 22.6381 6.74198 22.7721 6.68833C22.9612 6.99125 23.1322 7.29382 23.2889 7.59568C23.069 7.69446 22.8411 7.76934 22.6097 7.81005C22.7515 8.27406 22.8627 8.75578 22.9398 9.24966C23.0213 9.28605 23.128 9.3116 23.2734 9.32753C23.4804 9.35021 23.7385 9.33417 24.0079 9.28257C24.1199 9.61789 24.2121 9.95199 24.2879 10.2833C23.9098 10.3656 23.5268 10.3959 23.161 10.3559C23.1248 10.352 23.0887 10.3479 23.0523 10.3421C23.0808 10.902 23.0653 11.4533 23.009 11.9909C23.1058 12.1264 23.2714 12.2359 23.5258 12.3366C23.8005 12.4452 24.1597 12.5102 24.5438 12.5249C24.5435 12.8742 24.5233 13.2196 24.4868 13.5603C24.0156 13.5426 23.5572 13.4603 23.1457 13.2976C23.0354 13.2539 22.9281 13.2013 22.8242 13.1419C22.7194 13.6162 22.5818 14.076 22.4146 14.5177C22.4541 14.7787 22.6245 15.0105 22.94 15.2522C23.2112 15.4598 23.5818 15.641 23.9926 15.7741C23.8796 16.1026 23.749 16.4238 23.6055 16.7385C23.13 16.5795 22.6861 16.359 22.3127 16.0732C22.1576 15.9544 22.0141 15.8192 21.8875 15.6704C21.6657 16.0809 21.4163 16.4692 21.1409 16.8318C21.0989 17.1461 21.22 17.4679 21.4987 17.8326C21.7292 18.1344 22.0691 18.4337 22.4647 18.6933C22.2603 18.9745 22.0428 19.2445 21.8149 19.5056C21.373 19.2071 20.9806 18.8563 20.6777 18.46C20.5207 18.2545 20.3882 18.0298 20.2906 17.7928C19.9195 18.151 19.5176 18.4695 19.0893 18.7434C18.8931 19.0881 18.9134 19.4936 19.1239 20.005C19.289 20.406 19.5823 20.8366 19.9484 21.2339C19.6666 21.4438 19.377 21.6395 19.0808 21.8215C18.6935 21.3833 18.3754 20.9024 18.1682 20.399C18.0293 20.0613 17.9444 19.7009 17.9349 19.3431C17.5202 19.5125 17.088 19.6427 16.6404 19.7302C16.4262 20.0222 16.3661 20.4118 16.4314 20.9158C16.5048 21.4835 16.7676 22.1508 17.1485 22.7651C16.3757 23.051 15.5837 23.24 14.7946 23.3147L14.8914 24.3448C15.878 24.2515 16.8573 24.0065 17.8001 23.631C18.2011 24.075 18.6495 24.4354 19.0738 24.642C19.4088 24.805 19.7048 24.8815 19.9778 24.858C20.7078 24.5529 21.3983 24.1777 22.043 23.7416C21.2745 23.5469 20.5187 23.117 19.8568 22.5696C20.1578 22.3758 20.4508 22.1663 20.7365 21.9458C21.2995 22.3663 21.9231 22.6717 22.4544 22.7754C22.7893 22.8407 23.0677 22.8409 23.303 22.7615C24.0337 22.1096 24.6812 21.3694 25.2318 20.5615C24.4185 20.6126 23.5435 20.3936 22.7378 20.0222C22.9656 19.7505 23.1839 19.4697 23.3893 19.1788C24.014 19.4338 24.669 19.5652 25.1834 19.5296C25.5356 19.5052 25.801 19.4272 25.9973 19.2721C26.3946 18.4958 26.709 17.6728 26.9289 16.8162C26.9104 16.823 26.8922 16.8305 26.8736 16.8369C26.1903 17.0718 25.4012 17.0981 24.6285 16.9821C24.7688 16.6574 24.8947 16.3252 25.0053 15.9866C25.5714 16.0434 26.1275 15.9993 26.5366 15.8587C26.8555 15.7491 27.0703 15.6123 27.1985 15.4197C27.3072 14.5931 27.3297 13.7429 27.2574 12.8808C27.255 12.8824 27.2528 12.8844 27.2505 12.886C26.7544 13.2128 26.146 13.4105 25.5152 13.503C25.5463 13.1545 25.5625 12.8013 25.5601 12.4453C25.9981 12.3578 26.4013 12.2065 26.6817 12.0218C26.8804 11.891 27.0105 11.7672 27.0845 11.6329C26.9222 10.7904 26.6714 9.98191 26.343 9.21852C26.0472 9.52658 25.6719 9.76937 25.2611 9.95652C25.1821 9.62037 25.0862 9.28373 24.9741 8.94542C25.2399 8.80644 25.4687 8.64323 25.6153 8.48566C25.7377 8.35426 25.8035 8.25615 25.8262 8.166C25.4961 7.57013 25.1175 7.00706 24.6958 6.48083C24.5497 6.69077 24.3678 6.87792 24.1653 7.04605C24.0046 6.73894 23.8308 6.43271 23.6399 6.12654C23.762 6.00675 23.8585 5.8854 23.9146 5.78419C23.9444 5.73055 23.9655 5.69261 23.9786 5.66153C23.8621 5.54024 23.7421 5.42183 23.6208 5.30552C22.6866 4.61995 21.9283 4.27683 20.9593 3.96436L20.9592 3.96452Z" fill="white"/>
<g clip-path="url(#clip0_84_577)">
<path d="M14.1583 16.518C17.0254 16.518 19.3497 14.1937 19.3497 11.3266C19.3497 8.45951 17.0254 6.13525 14.1583 6.13525C11.2912 6.13525 8.96692 8.45951 8.96692 11.3266C8.96692 12.1571 9.16192 12.942 9.50862 13.6381C9.60075 13.8231 9.63142 14.0345 9.57801 14.2341L9.2688 15.3898C9.13457 15.8914 9.59352 16.3503 10.0952 16.2161L11.2508 15.9069C11.4504 15.8535 11.6619 15.8842 11.8469 15.9763C12.5429 16.323 13.3278 16.518 14.1583 16.518Z" stroke="white"/>
<path d="M12.6008 11.3684L13.6391 12.3651L15.7157 10.2886" stroke="white" stroke-linecap="round" stroke-linejoin="round"/>
</g>
<defs>
<clipPath id="clip0_84_577">
<rect width="12.4593" height="12.4593" fill="white" transform="translate(7.92859 5.09717)"/>
</clipPath>
</defs>
</svg>
