<svg width="68" height="5" viewBox="0 0 68 5" fill="none" xmlns="http://www.w3.org/2000/svg">
<path d="M1.48251 2.50832C2.02242 2.50832 2.56232 2.47914 3.09969 2.46321L3.7562 2.43137L6.65344 2.28012C7.79916 2.2182 8.95333 2.15452 10.1159 2.08906L15.0638 1.79983L16.1969 1.7441L19.0789 1.59285L21.9609 1.46018C22.3386 1.4416 22.7214 1.41772 23.0914 1.40445L27.6895 1.2532L30.5183 1.16033C30.8859 1.16033 31.2559 1.13114 31.626 1.12583L36.0695 1.06214L40.4571 0.993152C40.845 0.993152 41.2176 0.993152 41.6155 0.993152L44.4798 0.979885L48.9284 0.950696H50.3858H53.4276H53.681C51.393 0.982538 49.1049 1.01615 46.8169 1.05153L43.9602 1.11522C43.5496 1.11522 43.1364 1.11522 42.7232 1.13379L38.5764 1.25055L33.7831 1.38588C33.5144 1.38588 33.2457 1.40976 32.9796 1.42303L30.4245 1.54774L25.246 1.79718C24.9925 1.79718 24.739 1.82636 24.4856 1.84494L21.9508 2.02803L17.4237 2.35707C17.008 2.38626 16.5923 2.42872 16.1766 2.46587L13.2768 2.73122L9.58871 3.04699L4.46087 3.51667L3.22897 3.62812C2.49388 3.69446 1.76134 3.79264 1.02879 3.87755C1.00838 3.8747 0.987629 3.87645 0.967921 3.88268C0.948214 3.88891 0.930006 3.89948 0.914517 3.91368C0.899028 3.92787 0.886616 3.94537 0.878112 3.965C0.869608 3.98462 0.865209 4.00593 0.865209 4.02748C0.865209 4.04903 0.869608 4.07033 0.878112 4.08996C0.886616 4.10958 0.899028 4.12708 0.914517 4.14128C0.930006 4.15547 0.948214 4.16604 0.967921 4.17227C0.987629 4.1785 1.00838 4.18025 1.02879 4.1774L1.83231 4.21455C1.79776 4.28711 1.77955 4.36699 1.77908 4.44806C1.77974 4.59423 1.83551 4.73421 1.93424 4.83757C2.03297 4.94093 2.16669 4.9993 2.30631 5C4.40257 4.86202 6.49882 4.71342 8.59761 4.60993L14.0626 4.34458L20.1029 4.04472L22.0065 3.9492C22.1891 3.9492 22.3716 3.92797 22.5541 3.92266L32.2876 3.65731L37.4889 3.51402C38.1176 3.4981 38.7436 3.48217 39.3697 3.47156L49.3238 3.30969L53.5898 3.23805C54.804 3.21682 56.0181 3.20886 57.2323 3.1611L60.241 3.04169C60.748 3.02311 61.2549 3.00984 61.7416 2.978L65.1509 2.73653C65.0874 2.85229 65.0701 2.9896 65.1027 3.11864C65.1355 3.24372 65.2137 3.3504 65.3207 3.41584C65.375 3.45002 65.4354 3.47214 65.4982 3.48081C65.561 3.48949 65.6248 3.48453 65.6857 3.46625C65.9392 3.36277 66.1927 3.25662 66.4284 3.14783H66.4132L66.4664 3.12395L66.5298 3.09476H66.507L66.8999 2.92228L67.313 2.73918C67.4601 2.67019 67.6045 2.58793 67.7465 2.50832C67.8247 2.45859 67.8892 2.38839 67.9336 2.30465C67.9781 2.2209 68.0009 2.12648 68 2.03069C67.9998 1.91035 67.9621 1.79337 67.8925 1.69757C67.8229 1.60176 67.7254 1.53238 67.6147 1.49998C67.4854 1.4761 67.3612 1.45752 67.2319 1.4416H67.1458C67.0596 1.4416 66.9708 1.4416 66.8923 1.46018C66.6996 1.46018 66.507 1.50529 66.3143 1.51855L65.8403 1.5557L64.573 1.65123L64.2434 1.67511C64.2833 1.62749 64.3127 1.57134 64.3296 1.51059C64.3495 1.46276 64.3607 1.41147 64.3626 1.35934L64.3778 1.24524C64.3772 1.19717 64.3686 1.14958 64.3524 1.1046L64.3854 1.08868C64.4644 1.04008 64.5306 0.971694 64.578 0.889664C64.6203 0.806242 64.6429 0.713436 64.6439 0.619003C64.6427 0.520228 64.6174 0.423422 64.5704 0.337727L64.4868 0.226279C64.4216 0.157708 64.3403 0.108293 64.251 0.0829875C64.0884 0.0229152 63.9165 -0.0049786 63.7441 0.000727695C63.6047 0.000727695 63.4602 0.000727695 63.3208 0.0139954H62.7074C62.4184 0.0139954 62.132 0.0139954 61.843 0.0139954H59.5617C58.8444 0.0139954 58.127 0.0139954 57.4097 0.0139954H55.4529C52.8522 0.0139954 50.254 0.0299166 47.6534 0.0564521L41.8031 0.15198C40.9312 0.15198 40.0617 0.173208 39.1898 0.194436L33.3294 0.32446L31.659 0.361609C31.3345 0.361609 31.0126 0.385491 30.6881 0.398759L24.8962 0.626963L23.1219 0.698609C22.7923 0.711877 22.4603 0.733105 22.1308 0.75168L16.387 1.07541C15.3959 1.13114 14.4073 1.19482 13.4162 1.25851L8.334 1.59285C6.86636 1.68838 5.39873 1.77329 3.9311 1.85821L3.23404 1.90066L2.10606 1.96435C1.77147 1.98027 1.43688 1.98823 1.09216 1.98027C1.07631 1.93392 1.04702 1.89392 1.00839 1.86585C0.969763 1.83778 0.92372 1.82304 0.8767 1.82371C0.661244 1.84229 0.445789 1.86617 0.230333 1.89005C0.180266 1.89363 0.132342 1.91269 0.0926327 1.94481C0.0529231 1.97694 0.0232154 2.02068 0.00727343 2.07049C-0.0081132 2.13383 0.00112586 2.20096 0.0329638 2.25718C0.0648018 2.31339 0.116639 2.35409 0.177103 2.37034L0.458463 2.43933C0.552009 2.45954 0.646937 2.47196 0.742357 2.47648C0.98823 2.50036 1.23664 2.50567 1.48251 2.50832ZM60.7962 1.65654H61.7416C61.7691 1.73047 61.8124 1.79676 61.8684 1.85025C61.7467 1.86086 61.625 1.86882 61.5034 1.87413L60.8139 1.90066L57.8001 2.01477C57.3413 2.03334 56.8825 2.05988 56.4237 2.06784L54.2717 2.10233L49.3542 2.18459L39.8083 2.34381C37.527 2.38095 35.2457 2.45525 32.9644 2.51894L22.6833 2.80287C21.9964 2.8241 21.307 2.86921 20.62 2.9037L14.7748 3.19825L9.03866 3.48483L8.50636 3.51136L10.0526 3.38399L15.4542 2.95147L17.34 2.80021L18.3134 2.73653L23.9304 2.38892C24.2954 2.36503 24.6605 2.33584 25.028 2.31992L26.6224 2.24828L32.4143 2.01211L33.6817 1.96169C33.7932 1.96169 33.9048 1.96169 34.0188 1.96169L34.9136 1.94312L40.7157 1.8184C41.6054 1.79983 42.49 1.7786 43.3873 1.77064C46.2643 1.74676 49.1387 1.71492 52.0056 1.70165C54.9383 1.68042 57.8685 1.65919 60.7987 1.65654H60.7962Z" fill="#161616"/>
</svg>
