<svg width="122" height="61" viewBox="0 0 122 61" fill="none" xmlns="http://www.w3.org/2000/svg">
<g opacity="0.38">
<path d="M65.0696 45.4402C65.3513 44.1701 65.3674 42.8554 65.1168 41.5787C64.8769 40.3603 64.4996 39.173 63.9922 38.0396C63.4817 36.9259 62.8515 35.8711 62.1125 34.8938C61.3579 33.9139 60.4952 33.0222 59.5408 32.2356C57.6393 30.6895 55.4539 29.53 53.1076 28.8223C48.4596 27.4419 43.5184 27.3875 38.8412 28.6651C36.4989 29.2699 34.2612 30.2244 32.2035 31.4963C31.1711 32.1494 30.1998 32.8943 29.3014 33.722C28.4062 34.5612 27.5949 35.4858 26.8791 36.4825C25.3387 38.5237 24.4901 41.0035 24.4568 43.5606C24.4753 44.8551 24.76 46.132 25.293 47.3118C25.8261 48.4916 26.5962 49.5491 27.5555 50.4185C29.446 52.0909 31.7877 53.1687 34.2876 53.5172C34.8941 53.6181 35.5059 53.6837 36.12 53.7138H36.3245V53.8239C36.6234 54.9013 36.8672 56.0338 37.1582 57.1821C37.4173 58.3253 37.7969 59.4378 38.2907 60.5009C38.3339 60.5479 38.3844 60.5877 38.4401 60.6189C39.1086 60.9413 39.4861 60.7683 39.7142 60.5324C39.7613 60.4773 39.7928 60.4223 39.8321 60.3672C40.304 59.9878 40.7433 59.5695 41.1455 59.1168C41.932 58.3303 42.7184 57.3708 43.4263 56.7574L43.9139 56.3248L44.315 56.0181C44.5352 55.853 44.6767 55.7664 44.6767 55.7664C44.8994 55.6001 45.1304 55.4452 45.3688 55.3024L45.7384 55.1215C45.8014 55.1215 45.8643 55.0508 45.9272 55.0272H46.0294L46.2811 54.9249C46.3988 54.8774 46.5197 54.838 46.6429 54.807C47.7149 54.5439 48.8063 54.3676 49.9067 54.28C51.0785 54.1306 52.2661 53.9497 53.4064 53.7059C55.7864 53.2628 58.0872 52.4676 60.2329 51.3465C61.3556 50.7351 62.3662 49.9373 63.2214 48.9872C64.1329 47.9839 64.7695 46.7621 65.0696 45.4402ZM62.4664 46.6671C61.9265 47.5223 61.2205 48.2604 60.3902 48.8377C58.5861 50.0235 56.5825 50.8734 54.476 51.3465C53.4064 51.6218 52.3132 51.8341 51.2122 52.0072C50.6617 52.1015 50.1112 52.1802 49.5528 52.251L47.8462 52.4476C47.2277 52.5294 46.6173 52.6635 46.0216 52.8487C45.8657 52.8894 45.7132 52.9419 45.5654 53.006L45.298 53.1082L45.1722 53.1554C44.9992 53.2262 44.8419 53.3206 44.6846 53.3992C44.3596 53.5625 44.0468 53.7491 43.7487 53.9576L43.5442 54.1306C43.3622 54.2805 43.1889 54.4407 43.0252 54.6103C42.5462 55.0946 42.1119 55.621 41.7275 56.1833C41.2194 56.8955 40.752 57.636 40.3276 58.4011C40.1703 58.6763 40.0287 58.9359 39.9029 59.1875C39.5823 58.3761 39.3195 57.543 39.1165 56.6945C38.8412 55.6092 38.6053 54.4924 38.2828 53.352L38.212 53.1003L38.0862 52.6914L37.8345 51.9049C37.8345 51.9049 37.8345 51.8263 37.7952 51.8106H37.4806H37.0559H36.2695C35.7428 51.785 35.2178 51.7325 34.6966 51.6533C32.612 51.393 30.6463 50.5385 29.034 49.1916C28.2653 48.533 27.6388 47.7248 27.1926 46.8162C26.7464 45.9076 26.4899 44.9176 26.4387 43.9066C26.3976 41.8174 27.0259 39.7698 28.2319 38.0632C28.8303 37.1726 29.521 36.3475 30.2924 35.6016C30.6699 35.2084 31.0788 34.8781 31.4878 34.5163C31.8968 34.1545 32.3293 33.8478 32.7933 33.5568C34.6057 32.3128 36.5974 31.3527 38.6996 30.7098C41.862 29.7843 45.1742 29.4825 48.4517 29.8211C49.5343 29.947 50.6065 30.1494 51.6605 30.4267C52.7101 30.6912 53.734 31.0492 54.7198 31.4963C55.2153 31.7008 55.6793 31.976 56.159 32.2277L56.8433 32.6524C57.0731 32.79 57.2938 32.9423 57.5039 33.1085C59.2442 34.3442 60.6826 35.9573 61.7114 37.8273C62.7447 39.664 63.2865 41.7363 63.2844 43.8437C63.255 44.8389 62.9736 45.8104 62.4664 46.6671Z" fill="#202020"/>
<path d="M54.4445 26.2899C54.4282 26.3544 54.4282 26.422 54.4445 26.4865C54.6333 27.2022 55.0108 27.3831 55.3411 27.391C55.528 27.3964 55.7137 27.3587 55.8837 27.2809C56.3627 27.1732 56.8312 27.0232 57.2836 26.8326C58.2982 26.4472 59.4621 25.8731 60.3587 25.5506C60.807 25.3776 61.2002 25.2675 61.4755 25.1889L61.9237 25.0866C62.2058 25.0038 62.4919 24.9355 62.781 24.8822L63.2293 24.7956L63.4573 24.7563L64.1966 24.6462C66.1234 24.3788 68.1289 24.2294 70.1344 23.9699C72.1898 23.7517 74.2167 23.3195 76.1823 22.6801C77.2094 22.3226 78.1872 21.8363 79.0921 21.233C80.05 20.5926 80.8555 19.7496 81.4515 18.7635C82.0212 17.7689 82.3724 16.6643 82.4818 15.5233C82.5643 14.4391 82.5194 13.349 82.3481 12.2752C82.0132 10.1214 81.1603 8.08107 79.8629 6.32958C79.213 5.45863 78.4634 4.66678 77.6293 3.9702C76.8002 3.29588 75.9042 2.70821 74.9554 2.2164C71.172 0.379864 66.9427 -0.337749 62.7653 0.148008C60.6891 0.353157 58.6483 0.826348 56.6938 1.55577C54.7072 2.29778 52.8654 3.38102 51.2515 4.75666C49.5649 6.15395 48.2899 7.98349 47.563 10.0495C46.8619 12.1965 46.954 14.5237 47.8225 16.6086C48.689 18.6194 50.083 20.3586 51.8571 21.6419C52.7128 22.2828 53.6358 22.8287 54.6097 23.2699C54.8535 23.38 55.0973 23.4901 55.3411 23.5845L55.7186 23.7261H55.8051L55.2467 24.6855C54.9457 25.2028 54.6777 25.7387 54.4445 26.2899ZM55.4748 21.4768C54.6447 21.0972 53.8544 20.6361 53.1154 20.1005C51.6474 19.0537 50.4789 17.6411 49.7258 16.003C49.0065 14.4029 48.881 12.5989 49.3719 10.9146C49.9148 9.20273 50.9189 7.67349 52.2739 6.49473C53.6479 5.25575 55.2327 4.27289 56.9533 3.5927C58.6916 2.88615 60.5167 2.41534 62.3799 2.1928C64.2469 1.95683 66.1361 1.95683 68.0031 2.1928C68.9314 2.31372 69.8509 2.49499 70.7557 2.73546C71.6508 2.98347 72.524 3.30437 73.3667 3.69494C75.038 4.44241 76.5353 5.52985 77.763 6.88796C78.9481 8.25869 79.7821 9.89702 80.1932 11.6618C80.2999 12.1073 80.3787 12.5591 80.4291 13.0145L80.5078 13.6987V14.3672C80.5268 15.2292 80.3882 16.0874 80.0988 16.8996C79.7716 17.6899 79.2881 18.4059 78.6772 19.0046C78.0663 19.6033 77.3407 20.0724 76.544 20.3836C74.8161 21.1045 72.9986 21.5886 71.141 21.8228C69.2378 22.1138 67.3031 22.279 65.3291 22.4992C64.8363 22.5569 64.3408 22.6198 63.8427 22.6879L63.1113 22.798L62.6237 22.8845C62.2872 22.9408 61.9538 23.0143 61.6249 23.1048C61.3233 23.1999 61.0267 23.3101 60.7362 23.4351C60.1398 23.7221 59.5643 24.0506 59.0138 24.4181C58.1251 24.9923 57.3072 25.5428 56.9926 25.7709L57.4016 25.0552L57.5117 24.8664L57.6611 24.5833C57.7948 24.3395 57.9128 24.0957 58.0308 23.8519L58.3218 23.207L58.4712 22.8767L58.542 22.7115V22.6722H58.4633L57.0713 22.0588L56.7174 21.9408L56.4264 21.8307L56.1039 21.7127C55.868 21.6655 55.6871 21.5633 55.4748 21.4768Z" fill="#202020"/>
<path d="M24.8501 24.6776C25.9335 23.2936 26.6842 21.6791 27.0443 19.9588C27.2186 19.0708 27.2636 18.1622 27.178 17.2613C27.0936 16.3519 26.8625 15.4622 26.4938 14.6266C26.1367 13.7967 25.6568 13.0253 25.0703 12.338C24.4999 11.6516 23.8414 11.0435 23.112 10.5292C21.6787 9.52588 20.0534 8.82971 18.3382 8.4844C17.5048 8.28832 16.6585 8.15166 15.8058 8.07544H14.516C14.0913 8.07544 13.6588 8.12263 13.2341 8.14622C11.509 8.29491 9.82237 8.73918 8.24791 9.45961C6.6813 10.1815 5.25636 11.1776 4.04036 12.401C2.82224 13.6478 1.8627 15.1232 1.21697 16.7422L0.965301 17.3399C0.889074 17.5435 0.823448 17.7509 0.768686 17.9612C0.658582 18.3781 0.509154 18.7949 0.422644 19.2117C0.244276 20.0531 0.112995 20.9038 0.029414 21.7598C-0.104492 23.5524 0.220297 25.3496 0.973165 26.9819C1.76925 28.6305 3.04367 30.0008 4.6302 30.9142C6.1691 31.7803 7.87916 32.2984 9.63995 32.4321C11.3677 32.5756 13.1071 32.4077 14.7755 31.9366C15.4848 31.6953 16.2068 31.4931 16.9383 31.331L17.8113 31.1659C17.8113 31.1659 18.1258 31.0951 18.5977 31.0086C19.1814 30.9195 19.7695 30.8617 20.3594 30.8356C21.6492 30.7805 22.9468 30.9457 22.8367 30.8985C23.5786 31.0237 24.3363 31.0237 25.0781 30.8985C25.096 30.8888 25.1102 30.8736 25.1187 30.8552C25.1272 30.8368 25.1295 30.8161 25.1253 30.7963C25.2932 30.6611 25.4166 30.4786 25.4797 30.2725C25.5428 30.0664 25.5426 29.8461 25.4792 29.6402C25.4802 29.6164 25.4757 29.5927 25.4662 29.5709C25.4566 29.5491 25.4423 29.5298 25.4242 29.5143L23.1041 27.1549L23.0019 27.0527L23.3243 26.6437C23.8277 25.991 24.3467 25.3618 24.8501 24.6776ZM21.8065 25.3461L21.3975 25.873C21.138 26.2033 20.902 26.5258 20.6582 26.8561L20.4774 27.0999C20.4774 27.1392 20.3908 27.1864 20.4066 27.2257L20.5088 27.3358L20.9414 27.7684L21.7278 28.5548L22.939 29.766C21.8836 29.4339 20.7939 29.2228 19.6909 29.1368C19.0626 29.0906 18.4317 29.0906 17.8034 29.1368C17.4574 29.1919 17.1192 29.2469 16.7889 29.3177C16.6158 29.3177 16.4507 29.3806 16.2855 29.4278L16.0417 29.4829H15.9159L15.3496 29.6402C14.6125 29.8931 13.8582 30.0928 13.0925 30.2379C12.3424 30.3729 11.5818 30.4413 10.8196 30.4423C9.31223 30.4509 7.81984 30.1427 6.43906 29.5379C5.10352 28.9584 3.96833 27.9983 3.17525 26.7774C2.41402 25.5247 2.0215 24.0828 2.04275 22.6171C2.0388 21.8513 2.11258 21.0872 2.26296 20.3363L2.35733 19.7701C2.38517 19.5803 2.42991 19.3935 2.49103 19.2117L2.80562 18.1107C3.3232 16.6734 4.09582 15.3413 5.08635 14.1784C5.34588 13.911 5.58182 13.6042 5.87281 13.3526L6.69072 12.6212L7.61875 11.9684C7.93916 11.7628 8.26991 11.5739 8.60969 11.4022C9.96603 10.7079 11.432 10.253 12.9431 10.0573C14.4705 9.888 16.0151 9.95966 17.5203 10.2697C19.0127 10.5343 20.4376 11.0931 21.7121 11.9134C22.3294 12.3412 22.892 12.843 23.3873 13.4076C23.8679 13.9525 24.2751 14.5579 24.5984 15.2086C24.8901 15.857 25.0912 16.5424 25.1961 17.2456C25.2718 17.964 25.2454 18.6895 25.1175 19.4005C24.8477 20.8764 24.2213 22.2641 23.2929 23.4429C22.8367 24.072 22.3255 24.7012 21.8065 25.3461Z" fill="#202020"/>
<path d="M33.4933 37.607C33.4687 37.7184 33.4687 37.8338 33.4933 37.9452C33.4955 37.9886 33.5121 38.0301 33.5405 38.0631C33.5405 38.0631 33.5405 38.0631 33.6506 38.1103C33.7268 38.1024 33.7999 38.0753 33.8629 38.0317L33.9258 38.126C33.9453 38.1557 33.9692 38.1822 33.9966 38.2047C34.1011 38.28 34.2184 38.3359 34.3426 38.3698C34.4134 38.3698 34.4292 38.3698 34.4685 38.3698L34.7831 38.2597L35.0976 38.1968L35.8841 38.0631C36.411 37.9923 36.9301 37.9058 37.457 37.8665C40.151 37.6427 42.8554 37.5691 45.5576 37.6463H47.1305C47.1305 37.6463 48.5225 37.5834 49.891 37.4811C50.7602 37.4378 51.6265 37.3485 52.4863 37.2137C53.2547 37.1659 54.0035 36.9512 54.6805 36.5846C54.8535 36.3644 54.2951 36.2307 52.5099 36.1127L47.4057 35.6723H45.5733C42.7978 35.5933 40.02 35.6668 37.2525 35.8925C36.6942 35.9397 36.1358 36.0341 35.5695 36.1048L34.728 36.2543L34.5157 36.2936C34.4528 36.2936 34.3977 36.2936 34.2404 36.3486L33.7764 36.5059C33.7256 36.5468 33.6806 36.5944 33.6427 36.6475C33.5504 36.7893 33.4715 36.9394 33.4068 37.0958L33.3203 37.3317V37.3946L33.4933 37.607Z" fill="#202020"/>
<path d="M53.8311 40.2889C51.7155 39.9035 48.6798 39.6912 48.6798 39.6912H46.8395C43.5757 39.6912 40.3276 39.7855 37.0874 39.8327H33.8078C33.7513 39.8534 33.6983 39.8825 33.6505 39.9192C32.6203 40.7765 33.2416 41.4922 33.6505 41.7753C33.6682 41.7921 33.6893 41.8051 33.7123 41.8132C33.7354 41.8213 33.7599 41.8245 33.7842 41.8225H37.0795C40.3354 41.7831 43.5835 41.6966 46.8237 41.6809H48.3967L51.1493 41.5236C52.502 41.4528 53.8232 41.4056 53.7131 41.3821C55.9309 41.2405 57.4409 40.8709 53.8311 40.2889Z" fill="#202020"/>
<path d="M39.8399 43.9302C39.4347 43.7226 39.0073 43.5617 38.5659 43.4504L36.2065 43.5527L34.6336 43.6077H33.9022C33.8951 43.6335 33.8951 43.6606 33.9022 43.6864C33.7099 44.2928 33.7099 44.9439 33.9022 45.5503C33.9022 45.5975 33.9022 45.5975 33.9415 45.5975H34.728L36.3009 45.5424L38.5659 45.4323C39.0036 45.3219 39.4343 45.1854 39.8557 45.0234C40.3747 44.7874 40.7444 44.347 39.8399 43.9302Z" fill="#202020"/>
<path d="M54.8614 8.50012C54.8788 8.51742 54.8998 8.53063 54.9229 8.53879C54.946 8.54695 54.9707 8.54986 54.9951 8.54731H58.2825C60.9171 8.54731 63.536 8.50012 66.1471 8.54731H67.72L70.4569 8.42147C71.8174 8.36642 73.1387 8.3271 73.0286 8.3035C75.2385 8.16981 76.7171 7.80804 73.1387 7.20246C71.031 6.80923 68.0031 6.56543 68.0031 6.56543H66.1628C63.5281 6.56543 60.8935 6.56543 58.2982 6.56543H55.0108C54.9547 6.58364 54.9017 6.61015 54.8535 6.64408C53.7918 7.49345 54.421 8.21699 54.8614 8.50012Z" fill="#202020"/>
<path d="M54.6569 12.2437C54.6743 12.261 54.6953 12.2742 54.7184 12.2824C54.7416 12.2906 54.7662 12.2935 54.7906 12.2909C55.8916 12.2909 56.9927 12.2909 58.0937 12.2437L65.1719 12.0471H66.7448L69.4817 11.8033C70.8344 11.6853 72.1556 11.5752 72.0455 11.5595C74.2555 11.3 75.7026 10.8596 72.1006 10.4585C69.9771 10.1753 66.9493 10.0574 66.9493 10.0574L65.1168 10.1124L58.0387 10.3012C56.9455 10.3012 55.8602 10.3405 54.767 10.3405C54.7128 10.3611 54.6624 10.3903 54.6176 10.427C53.5873 11.2449 54.2165 11.9606 54.6569 12.2437Z" fill="#202020"/>
<path d="M63.1743 16.0345C63.1743 16.0345 65.8089 15.712 65.6988 15.6648C66.7527 15.4289 67.4369 14.9885 65.6988 14.5716C64.9002 14.3509 64.0885 14.1802 63.2686 14.0604H58.8723L55.8681 13.9661H54.8614H54.4839C54.4839 13.9661 54.421 14.0211 54.4131 14.0368C54.3602 14.1325 54.3155 14.2325 54.2794 14.3357C54.2322 14.4301 54.2794 14.5402 54.185 14.6188C54.1054 14.7763 54.0447 14.9426 54.0041 15.1143C53.9848 15.1944 53.9848 15.278 54.0041 15.3581C54.0041 15.4367 54.0671 15.5154 54.0907 15.5783C54.1361 15.6894 54.1942 15.795 54.2637 15.8929C54.2637 15.9401 54.2637 15.9401 54.3266 15.9479C54.3895 15.9558 56.686 16.0502 58.833 16.0659L63.1743 16.0345Z" fill="#202020"/>
<path d="M15.4834 13.5334C14.516 13.9974 13.3757 14.6109 12.487 15.1064C11.5983 15.6018 10.914 16.0265 10.914 16.0265L9.46696 17.1433C8.31873 18.0163 7.18623 18.9207 6.09305 19.8723C5.25416 20.6011 4.43624 21.3692 3.6393 22.1766C3.6146 22.2315 3.59868 22.2899 3.59211 22.3496C3.43482 23.7024 4.41789 23.7338 4.9055 23.6316C4.98414 23.6316 4.99987 23.6316 5.03133 23.5765C5.81779 22.7901 6.60425 22.0744 7.39071 21.3666C8.4367 20.4543 9.52988 19.5734 10.6545 18.7319C11.0635 18.4095 11.441 18.1106 11.8971 17.8039C11.8971 17.8039 12.9667 16.9309 14.0363 16.0973C15.1059 15.2636 16.1519 14.4457 16.0496 14.5244C17.7562 13.0773 18.7236 11.9133 15.4834 13.5334Z" fill="#202020"/>
<path d="M14.7284 17.4421C12.8645 18.496 10.3557 20.2026 10.3557 20.2026L8.90857 21.3508L8.51534 21.6576C7.6581 22.3575 6.80086 23.0575 5.95935 23.8282C5.92743 23.8784 5.90603 23.9346 5.89643 23.9933C5.78632 24.6933 5.99867 25.0315 6.28966 25.2045C6.55914 25.3491 6.87024 25.3963 7.17049 25.3382C7.19377 25.3421 7.21767 25.3398 7.23977 25.3316C7.26187 25.3233 7.28138 25.3093 7.29633 25.291C8.08279 24.5832 8.91643 23.8911 9.76581 23.2069L10.1512 22.9002L11.3702 21.925L13.3993 20.1004C14.4138 19.1959 15.4126 18.3072 15.3103 18.3623C16.9619 16.8051 17.8113 15.5704 14.7284 17.4421Z" fill="#202020"/>
<path d="M12.8487 22.8925C12.3607 22.9554 11.8792 23.0607 11.4094 23.2071L10.7331 23.616C10.3241 23.8677 9.77361 24.198 9.21523 24.5676C8.69326 24.9084 8.18925 25.2759 7.70523 25.6687C7.46869 25.8578 7.24289 26.06 7.02887 26.2743C7.02887 26.2743 7.02887 26.345 7.02887 26.3608C7.29871 26.9397 7.75589 27.4107 8.32653 27.6977C8.37372 27.6977 8.37372 27.6977 8.38944 27.6977C8.40517 27.6977 8.60179 27.4854 8.94783 27.2023C9.36364 26.8569 9.79958 26.5365 10.2534 26.2428C10.7567 25.9046 11.2836 25.5822 11.6847 25.3384L12.3611 24.9294L12.9195 24.3789C13.1077 24.2146 13.2742 24.027 13.4149 23.8205C13.8317 23.27 13.8789 22.6959 12.8487 22.8925Z" fill="#202020"/>
<path d="M117.558 15.2481C116.569 18.4584 115.129 21.5117 113.28 24.3159C111.441 27.1173 109.232 29.657 106.713 31.866L104.754 33.4389C104.086 33.9501 103.37 34.3748 102.678 34.8545L102.159 35.2005L101.931 35.35L101.821 35.4129L101.38 35.6567L100.5 36.1443L99.7131 36.6319C99.1465 36.9908 98.5611 37.3189 97.9593 37.615C97.3144 37.9453 96.6852 38.2992 96.2134 38.5273C95.9668 38.6192 95.7276 38.7296 95.4977 38.8576C94.7508 39.1595 94.0556 39.5761 93.4372 40.0923C92.8552 40.0373 92.2732 39.9744 91.6991 39.8878H91.4867L91.9036 39.3295C92.1946 38.952 92.4934 38.543 92.8001 38.2048C93.4057 37.4734 94.0349 36.7656 94.6955 36.105C95.4494 35.3179 96.3097 34.6402 97.2515 34.0916C97.2887 34.0501 97.3181 34.0022 97.338 33.9501C97.4411 33.7367 97.4946 33.5028 97.4946 33.2659C97.4946 33.0289 97.4411 32.795 97.338 32.5816C97.223 32.4425 97.0789 32.3302 96.9159 32.2528C96.7528 32.1753 96.5748 32.1345 96.3942 32.1334C96.3381 32.1148 96.2774 32.1148 96.2212 32.1334C95.0864 32.7812 94.0508 33.5891 93.1462 34.5321C92.4148 35.2635 91.7463 36.0185 91.1014 36.7971C90.7789 37.1824 90.4643 37.5835 90.1576 37.9767L89.7015 38.598C89.4026 38.9991 89.1274 39.3845 88.86 39.7935L88.0735 40.9889L87.869 41.2877L87.8218 41.3664H88.0027L88.7105 41.5001C89.1903 41.5945 89.6622 41.681 90.1419 41.7596L90.8576 41.8854L91.1879 41.9405H91.3766C92.3754 42.0821 93.3664 42.1764 94.3652 42.2551C94.9472 42.3023 95.5213 42.3337 96.1033 42.3652C96.1033 42.3652 97.6762 42.3652 99.139 42.2787C100.602 42.1922 102.088 42.1057 101.962 42.0899C104.393 41.8304 105.95 41.3507 102.041 40.8866C100.885 40.7215 99.4929 40.5642 98.3997 40.4384L96.4886 40.2182C95.9302 40.2182 95.3718 40.1552 94.8213 40.1159C95.1045 40.0687 95.4269 40.0058 95.8123 39.9193L96.7246 39.7306C97.0313 39.6519 97.338 39.5418 97.6447 39.4474L99.4143 38.8576C99.8638 38.7096 100.303 38.531 100.728 38.3228L101.247 38.0869L102.198 37.5599L102.67 37.3004L102.914 37.1667L103.032 37.1038L103.284 36.9308L105.533 35.4286C106.264 34.9017 106.949 34.3118 107.656 33.7613C110.42 31.4278 112.847 28.7229 114.868 25.7237L116.292 23.4194L117.526 21.0128C117.74 20.6167 117.926 20.2068 118.085 19.7859L118.604 18.5276C118.761 18.1108 118.958 17.7018 119.099 17.2693L119.508 15.9795C120.629 12.5776 121.29 9.0414 121.474 5.46451L121.537 4.54436C121.537 4.23764 121.537 3.93092 121.537 3.6242V1.77602C121.519 1.71443 121.487 1.65791 121.443 1.61086C121.34 1.428 121.188 1.27734 121.005 1.17568C120.821 1.07403 120.613 1.02538 120.403 1.03517C120.194 1.04496 119.991 1.11279 119.818 1.23111C119.644 1.34943 119.507 1.51358 119.422 1.70524C119.405 1.72439 119.392 1.74682 119.384 1.77116C119.375 1.7955 119.372 1.82124 119.375 1.8468V3.60061C119.375 3.8916 119.375 4.18259 119.375 4.47358L119.32 5.35441C119.168 8.71516 118.575 12.0415 117.558 15.2481Z" fill="#202020"/>
</g>
</svg>
