<svg width="87" height="32" viewBox="0 0 87 32" fill="none" xmlns="http://www.w3.org/2000/svg">
<g opacity="0.38">
<path d="M32.6972 17.317L32.9172 15.729L33.8796 8.79953L34.2783 5.94664C34.271 5.89503 34.2522 5.84571 34.2233 5.80228C34.12 5.61535 33.9768 5.45341 33.804 5.32794C34.1408 5.19045 33.804 4.92922 32.0991 4.48926C30.3118 3.95992 27.7201 3.43747 27.7201 3.43747L6.73243 0.405836L3.88641 0.000244141C3.83642 0.00999862 3.7879 0.0261729 3.74205 0.0483653C3.60118 0.116733 3.47558 0.212872 3.3728 0.331007C3.27003 0.449141 3.19219 0.586833 3.14397 0.73581C2.96486 0.699978 2.77925 0.715856 2.60883 0.781591C2.43841 0.847326 2.29021 0.960201 2.18155 1.10703C2.14973 1.13524 2.13003 1.17464 2.12656 1.21702L1.72784 4.12491L0.676048 11.7968L0.483563 13.1717C0.483563 13.1717 0.0848456 18.025 0.15359 17.8326C0.15359 18.19 0.15359 18.52 0.15359 18.8156C0.0604734 18.9764 0.00804243 19.1576 0.000854129 19.3433C-0.00633418 19.529 0.0319377 19.7136 0.112343 19.8811C0.108047 20.0444 0.141841 20.2065 0.211048 20.3544C0.280255 20.5024 0.382973 20.6322 0.511061 20.7336C0.566057 20.7817 0.579806 20.7886 0.621052 20.7954L3.42583 21.2148L24.3791 24.2052C24.3791 24.2052 29.1912 24.6108 29.0331 24.542C30.9855 24.6108 32.2847 24.4114 29.2256 23.6002C27.4314 23.0778 24.8466 22.5278 24.8466 22.5278L3.69393 19.4962L2.52527 19.3243C2.869 19.0837 3.21272 18.8431 3.51519 18.6025C4.66323 17.7569 5.86625 16.8564 7.02804 15.9765L8.12795 15.124C8.12795 15.124 11.847 11.9549 11.6614 12.0511C11.9863 11.7552 12.2939 11.4408 12.5826 11.1093L13.27 11.6593C13.8467 12.1478 14.4479 12.6067 15.0711 13.0342C15.545 13.3863 16.0541 13.6881 16.5904 13.9347C16.6305 14.0524 16.7018 14.1569 16.7966 14.2372C16.9969 14.3901 17.2341 14.4873 17.4841 14.5191C17.5459 14.5191 17.5597 14.5191 17.5872 14.5191C18.3296 14.1135 19.2302 13.7835 20.1307 13.4054C20.4401 13.2748 20.7632 13.1304 21.0794 12.9723L21.2375 12.8967C21.815 13.5429 22.3305 14.1616 22.8599 14.8628L25.6097 18.3619L26.4621 19.4412C26.4621 19.4412 29.7068 23.0778 29.6106 22.8784C30.7517 24.0471 31.6729 24.7551 30.9855 23.4009C31.2666 22.8598 31.4681 22.281 31.5836 21.6822C32.1541 19.9361 32.6972 17.317 32.6972 17.317ZM11.139 11.2606C9.50283 12.1611 7.29614 13.6048 7.29614 13.6048L6.01749 14.5672C4.84196 15.454 3.69393 16.3202 2.47715 17.1864C1.98907 17.5507 1.51473 17.8738 1.03352 18.2106L1.09539 17.9975C1.61097 16.2033 2.14718 13.6048 2.14718 13.6048L2.36716 12.0168L3.42583 4.34489L3.62518 2.87376L4.84884 3.94618C6.72556 5.64416 8.54729 7.3834 10.3896 9.19138L11.3933 10.1401L12.0808 10.7381C11.847 10.8619 11.5308 11.0337 11.139 11.2606ZM21.2238 10.9994L20.3301 11.4324C20.0551 11.5699 19.7801 11.6868 19.4845 11.8174C18.559 12.168 17.6526 12.5673 16.7691 13.0136C16.7291 13.0549 16.6945 13.1011 16.666 13.1511C16.6357 13.2225 16.6105 13.2961 16.5904 13.371C16.4048 13.1236 16.1298 12.8005 15.7448 12.3811C14.5281 11.0062 12.7407 9.04014 12.7407 9.04014L11.5858 7.93335C9.75032 6.18724 7.91484 4.38614 6.01749 2.66065L5.22006 1.97321L6.48495 2.15882L27.2527 5.09421C27.2527 5.09421 32.0991 5.49293 31.9067 5.43106C32.216 5.43106 32.5116 5.43106 32.7728 5.43106C32.7189 5.48027 32.6684 5.53309 32.6216 5.58917C32.5666 5.63729 32.5666 5.65104 32.5597 5.69228L32.5254 5.95351L32.161 6.09788C30.408 6.7372 27.9813 7.74087 27.9813 7.74087L26.5446 8.42831L23.0042 10.1332L21.2238 10.9994ZM31.013 16.8495C31.013 16.8495 30.6349 21.7097 30.6967 21.5104C30.6967 22.0122 30.6967 22.4659 30.6967 22.8165L30.4218 22.3628C29.4937 20.7473 27.9951 18.5612 27.9951 18.5612L27.0052 17.3032L24.2554 13.811C23.9667 13.4329 23.6642 13.0411 23.3411 12.6561L22.8943 12.1268L23.7536 11.7143L27.3076 10.0094L28.545 9.39761L30.6074 8.18083C31.2948 7.75462 31.9823 7.3284 32.3466 7.11529L32.1473 8.55205L31.1848 15.4815L31.013 16.8495Z" fill="#202020"/>
<path d="M85.3999 22.5676C85.536 22.4448 85.6354 22.2865 85.6868 22.1104C85.7383 21.9344 85.7398 21.7475 85.6913 21.5706C85.6427 21.3938 85.546 21.2339 85.4118 21.1088C85.2777 20.9837 85.1115 20.8983 84.9317 20.8622C84.9142 20.8479 84.894 20.8375 84.8722 20.8317C84.8505 20.8258 84.8277 20.8247 84.8055 20.8284L83.3305 21.1804L81.8405 21.4289C79.7749 21.7248 77.6871 21.837 75.6016 21.7641L74.8232 21.7477L74.0337 21.6927C73.509 21.6589 72.9891 21.6335 72.4631 21.5779C71.4195 21.462 70.3839 21.3695 69.3298 21.1867C67.2736 20.892 65.1765 20.4582 63.1153 19.9699L61.5641 19.597L59.9771 19.1717C59.3662 19.008 59.1803 18.9582 58.8748 18.8764L58.0249 18.6486L57.2258 18.4701L55.4749 18.0721C54.2141 17.7841 52.975 17.4948 53.0741 17.5498C51.8044 17.295 50.7772 17.1977 50.8809 17.4746L49.675 16.1053L50.93 16.043C53.3026 15.9348 55.6631 15.6416 57.9901 15.1662C59.0366 14.9437 60.0778 14.67 61.1138 14.345C61.1612 14.3101 61.2034 14.2687 61.2393 14.2221C61.9514 13.1318 61.1353 12.6712 60.6789 12.5418C60.6059 12.5222 60.5926 12.5186 60.5594 12.5097C59.5916 12.8103 58.609 13.0689 57.6115 13.2856C55.4745 13.7214 53.3076 13.9949 51.1294 14.1037L50.3048 14.1532L49.3469 14.1954L45.9933 14.3074L45.7847 14.3156L45.8157 14.3595L45.8877 14.4357L46.1508 14.7553L46.6903 15.398L47.771 16.6769L48.5892 17.6078L49.1304 18.2439L50.1369 19.3747C50.1369 19.3747 51.0812 20.3394 52.0437 21.2094C53.0063 22.0794 53.9045 23.0033 53.836 22.9138C55.4972 24.2841 56.7518 24.9405 54.6312 22.2301C54.0313 21.4146 53.2806 20.4448 52.6881 19.6811L51.6584 18.3448L51.0397 17.6523C51.5629 18.0071 52.1225 18.3049 52.7089 18.5409C53.6321 18.9733 54.7648 19.4476 55.681 19.7998C56.5972 20.1521 57.2766 20.4053 57.2766 20.4053L59.1425 20.9053C60.1983 21.1882 61.2608 21.4728 62.3339 21.7177C63.407 21.9625 64.4734 22.2056 65.5501 22.4371C66.6268 22.6687 67.7123 22.8671 68.8055 23.0105C70.9913 23.3653 73.1981 23.5762 75.4116 23.6419C77.6428 23.7264 79.8771 23.6105 82.0876 23.2956L83.6865 23.0124L85.2652 22.6454C85.3143 22.6277 85.36 22.6013 85.3999 22.5676Z" fill="#202020"/>
</g>
</svg>
