<svg width="47" height="63" viewBox="0 0 47 63" fill="none" xmlns="http://www.w3.org/2000/svg">
<g opacity="0.38">
<path d="M15.2081 8.28865V8.46739L15.1188 8.79736C14.9617 8.70623 14.7986 8.62585 14.6307 8.55676C14.4553 8.49138 14.2763 8.43629 14.0945 8.39177L13.8126 8.34365H13.6683H13.2627C13.1384 8.34829 13.0145 8.35976 12.8915 8.37802C12.0024 8.54663 11.1851 8.9804 10.5473 9.6223C9.96113 10.2031 9.47147 10.8738 9.09676 11.609C8.33486 13.0579 7.9988 14.6929 8.12746 16.3249C8.12746 16.5311 8.18246 16.7373 8.21683 16.9436C8.2512 17.1498 8.3062 17.3285 8.34744 17.5142C8.43681 17.8923 8.5468 18.2703 8.67054 18.6484C8.80951 19.044 8.97961 19.4278 9.17925 19.7965C9.41797 20.2419 9.75974 20.6237 10.176 20.9101C10.444 21.0812 10.7472 21.1893 11.0628 21.2264C11.3674 21.2545 11.6745 21.217 11.9634 21.1164C12.4218 20.9505 12.8392 20.6879 13.1871 20.3464C13.7668 19.7834 14.2685 19.1453 14.6788 18.4491C15.3198 17.3896 15.8673 16.2764 16.3149 15.1219C16.5542 15.829 16.8437 16.5182 17.1811 17.1842C17.5536 17.9338 18.0564 18.6111 18.666 19.1846C18.9347 19.4291 19.2472 19.6204 19.5872 19.7484L19.8759 19.8377C19.9824 19.861 20.0903 19.8771 20.199 19.8858C20.2814 19.8922 20.3641 19.8922 20.4465 19.8858H20.6596C20.9414 19.8858 21.2164 19.8858 21.5051 19.8446C21.7942 19.8207 22.0813 19.7771 22.3644 19.714L22.7907 19.6246L23.2169 19.4871C23.5049 19.3836 23.7852 19.2595 24.0555 19.1159C24.6112 18.8195 25.1056 18.4207 25.5129 17.9404C26.2684 16.9891 26.7189 15.8317 26.8053 14.62C26.9045 13.5006 26.8396 12.3728 26.6128 11.2722C26.4049 10.2022 26.1012 9.15304 25.7054 8.13741C25.3095 7.1056 24.7999 6.12108 24.1862 5.20203L23.9249 4.84456C23.8218 4.73456 23.7187 4.60395 23.6225 4.50083L23.0519 3.92338C22.6875 3.53154 22.2544 3.18781 21.8489 2.82347C21.0078 2.11887 20.0845 1.51872 19.0991 1.03611C18.0824 0.544419 16.9942 0.217248 15.875 0.0668162C14.7475 -0.0646163 13.6059 -0.00183744 12.4996 0.252426C10.3374 0.804884 8.35207 1.90047 6.73195 3.43529C5.13 4.88244 3.76999 6.57664 2.70352 8.45364C1.61096 10.3293 0.830834 12.3701 0.39371 14.4963C-0.101789 16.6467 -0.12992 18.8785 0.311217 21.0407C0.561762 22.1607 1.02882 23.2209 1.68611 24.1617C2.36622 25.0933 3.2265 25.8788 4.2159 26.4716C6.14623 27.5506 8.29782 28.1737 10.506 28.2933C12.6298 28.4408 14.7632 28.3671 16.8718 28.0733C18.9577 27.7924 21.0241 27.3815 23.0588 26.8428C24.0762 26.5747 25.0867 26.2791 26.0835 25.956L27.3553 25.5298L28.4896 25.1173C28.4896 25.1173 29.617 24.6223 30.6963 24.0724C31.3864 23.7421 32.0546 23.3678 32.6967 22.9518C33.2968 22.6362 33.8183 22.1898 34.2229 21.6457C34.271 21.412 33.7829 21.5288 32.3255 22.065C31.4525 22.3606 30.3938 22.7044 29.5757 22.9725L28.1115 23.4193L26.9909 23.8249L26.7091 23.928L25.9598 24.1824C25.4648 24.3474 24.9698 24.4986 24.468 24.6498C22.4787 25.2629 20.4538 25.7542 18.4048 26.121C16.3629 26.4874 14.2922 26.6692 12.2178 26.664C10.204 26.6911 8.20304 26.339 6.31948 25.626C5.43704 25.2503 4.62911 24.7195 3.93405 24.0586C3.25071 23.4123 2.7139 22.627 2.3598 21.7557C1.69738 19.8914 1.53851 17.8853 1.89921 15.9399C1.96796 15.4381 2.0642 14.9362 2.16732 14.4344L2.34605 13.747L2.55916 13.0183C2.87812 12.0555 3.26877 11.1179 3.72782 10.2135C4.64412 8.39827 5.83867 6.7375 7.26815 5.29139C8.64172 3.84888 10.3449 2.76137 12.2315 2.12228C14.0804 1.5257 16.0828 1.61849 17.8685 2.3835C18.7789 2.75842 19.6326 3.25818 20.4052 3.86838L20.7077 4.08837L20.9895 4.33585L21.5533 4.83081L22.0895 5.37389C22.2616 5.53897 22.4245 5.71338 22.5775 5.89635C23.1631 6.67945 23.6417 7.53715 24.0006 8.44676C24.3924 9.3758 24.694 10.3404 24.9011 11.3272C25.1164 12.2828 25.1974 13.2639 25.1417 14.2419C25.1131 14.7088 25.0277 15.1705 24.8874 15.6168C24.7532 16.0245 24.5535 16.4076 24.2962 16.7511C24.0358 17.0672 23.7216 17.3348 23.3681 17.5417C22.9779 17.7517 22.5585 17.9023 22.1238 17.9885L21.787 18.0572L21.4364 18.0916C21.2085 18.1214 20.9788 18.1352 20.7489 18.1329C20.639 18.1329 20.4877 18.1329 20.4121 18.1329H20.3433H20.2677C20.1205 18.073 19.9853 17.9868 19.869 17.8785C19.4251 17.4412 19.0579 16.9322 18.7829 16.373C18.4434 15.7497 18.1516 15.1017 17.9098 14.4344C17.6648 13.7586 17.456 13.0701 17.2842 12.3721C17.5147 11.5776 17.6825 10.7662 17.7861 9.94539C17.8587 9.48997 17.8587 9.02592 17.7861 8.57051C17.7489 8.4036 17.6912 8.24195 17.6142 8.08929C17.5602 7.98333 17.4907 7.88602 17.408 7.80057C17.3627 7.74728 17.3121 7.69889 17.2567 7.6562C17.1929 7.60873 17.1264 7.56511 17.0574 7.52559C16.9197 7.45738 16.7705 7.41542 16.6174 7.40185C16.4918 7.388 16.365 7.388 16.2393 7.40185C16.1456 7.42204 16.0537 7.44963 15.9643 7.48434C15.8892 7.51225 15.8158 7.54438 15.7443 7.58058H15.6962C16.0606 7.08562 15.1669 8.26803 15.2563 8.15804L15.2081 8.28865ZM15.3113 11.2584C15.3663 11.5953 15.4281 11.9459 15.5037 12.2621C15.3525 12.7662 15.1875 13.2612 15.0088 13.747C14.5316 15.0646 13.9285 16.333 13.2077 17.5348C12.8799 18.0973 12.4775 18.613 12.0115 19.0678C11.8424 19.2429 11.6387 19.381 11.4134 19.4734C11.3675 19.4999 11.3153 19.5139 11.2622 19.5139C11.2091 19.5139 11.157 19.4999 11.111 19.4734C10.9301 19.3376 10.7841 19.1609 10.6848 18.9578C10.5329 18.6763 10.4064 18.3818 10.3067 18.0779C10.2035 17.7616 10.1073 17.4385 10.0317 17.1086C9.99044 16.9436 9.94919 16.7648 9.92169 16.6067C9.88822 16.455 9.86525 16.3011 9.85295 16.1461C9.75742 14.8507 10.029 13.5546 10.6366 12.4064C10.9245 11.8398 11.3004 11.3224 11.7503 10.8734C12.1296 10.4689 12.6239 10.1906 13.1664 10.076C13.226 10.0726 13.2856 10.0726 13.3452 10.076H13.5377H13.5995H13.7301C13.8193 10.0962 13.9067 10.1238 13.9914 10.1585C14.0817 10.1951 14.1691 10.2388 14.2526 10.2891C14.627 10.5243 14.9497 10.833 15.2013 11.1965L15.3113 11.2584Z" fill="#202020"/>
<path d="M39.5128 61.3286L40.2027 61.7555C40.4354 61.8961 40.6664 62.0434 40.9009 62.1774L41.6165 62.5613C41.6726 62.5723 41.7302 62.5733 41.7866 62.5642C41.9703 62.565 42.1506 62.5148 42.3074 62.419C42.4642 62.3232 42.5912 62.1857 42.6743 62.0218C42.7574 61.8579 42.7932 61.6741 42.7777 61.491C42.7623 61.308 42.6962 61.1328 42.5869 60.9851C42.5812 60.9639 42.5712 60.944 42.5574 60.9268C42.5436 60.9096 42.5264 60.8955 42.5068 60.8854L41.8408 60.529C41.6178 60.4052 41.4134 60.265 41.1921 60.1346L40.5832 59.7508L39.9868 59.3206C36.7105 57.004 33.9665 54.0147 31.9384 50.5524C31.6936 50.138 31.4523 49.7104 31.2261 49.2797L30.8107 48.599C30.576 48.1732 30.2703 47.6144 29.9729 47.0508C29.3933 45.9205 28.9124 44.7668 28.9256 44.8771C28.7436 44.4938 28.5696 44.134 28.4163 43.8296C29.5457 44.3956 30.5843 45.0084 30.5055 44.9303C31.0934 45.3159 31.7282 45.6247 32.3944 45.8492C32.641 45.8584 32.4672 45.2852 31.1499 44.0924C30.3365 43.3619 29.4767 42.6846 28.576 42.0647C27.8172 41.5767 27.0959 41.1344 26.5693 40.8154L25.9587 40.4382L25.8396 40.3779L25.7998 40.3672L25.7838 40.4269L25.8056 42.2049L25.8106 42.797C25.7622 42.8569 25.7208 42.9222 25.6873 42.9917C25.6734 43.0093 25.6632 43.0296 25.6574 43.0513C25.6516 43.0729 25.6502 43.0956 25.6535 43.1178C25.699 43.5855 25.7427 44.0598 25.7731 44.5306C25.7265 45.7137 25.6644 46.9283 25.72 48.1816C25.7373 48.542 25.7679 48.9061 25.8099 49.2803C25.8018 49.2994 25.7964 49.3195 25.7939 49.3401L25.7779 49.3998C29.5306 49.2595 26.8208 49.359 27.6551 49.3264L27.6907 49.1936L27.7021 48.9119L27.7165 48.3536C27.7391 47.6052 27.7382 46.8648 27.7174 46.1191C27.7053 45.5536 27.678 44.9912 27.6375 44.4252L27.6621 43.8553C27.7082 44.2829 27.7773 44.7077 27.8692 45.1278C28.0975 46.2026 28.4069 47.2586 28.7949 48.2867C29.1325 49.2312 29.4483 49.8851 29.4483 49.8851L29.8614 50.7075L30.3152 51.4839C32.4629 55.1747 35.3741 58.3642 38.854 60.839L39.5128 61.3286Z" fill="#202020"/>
</g>
</svg>
