<svg width="576" height="128" viewBox="0 0 576 128" fill="none" xmlns="http://www.w3.org/2000/svg">
<path d="M182.547 4.20329C269.788 7.59631 357.391 14.3317 444.512 5.4187C447.768 5.06421 446.683 1.06348 443.548 1.26605C294.689 10.6348 148.121 37.2219 1.97472 61.125C-1.28101 61.6314 -0.195744 65.4802 2.9394 65.2776C176.638 53.7819 351.483 31.0436 525.061 55.5544V51.3004C424.797 55.4531 323.99 57.9852 227.162 82.7998C226.564 82.9535 226.054 83.2881 225.732 83.739C225.409 84.1899 225.297 84.725 225.417 85.2412C225.537 85.7573 225.881 86.2179 226.381 86.5339C226.881 86.8499 227.503 86.999 228.127 86.9524C317.237 72.3169 406.589 53.9845 497.93 64.7712L497.569 60.6186C459.351 63.8326 421.874 71.6085 386.271 83.7114C383.98 84.5216 384.643 87.8134 387.175 87.7121C422.928 86.9018 458.681 85.3319 494.373 87.3069L493.469 83.2556L446.442 105.589C444.392 106.5 444.633 109.64 447.346 109.589C484.666 108.577 521.806 105.234 559.066 103.563L558.764 99.3598C535.311 103.816 513.907 113.337 490.514 117.793C489.916 117.947 489.406 118.282 489.084 118.733C488.761 119.184 488.649 119.719 488.769 120.235C488.889 120.751 489.233 121.212 489.733 121.528C490.233 121.844 490.856 121.993 491.479 121.946C519.334 118.3 545.741 124.681 573.415 127.973C576.61 128.378 576.972 124.174 573.777 123.769C545.862 120.376 518.791 114.097 490.514 117.793L491.479 121.946C514.872 117.49 536.275 107.969 559.729 103.512C562.382 103.006 562.321 99.2078 559.367 99.3091C522.107 100.98 484.968 104.373 447.647 105.386L448.612 109.387C464.288 101.926 479.964 94.4981 495.639 87.1044C496.15 86.9052 496.566 86.5689 496.824 86.1487C497.081 85.7284 497.164 85.2481 497.061 84.7836C496.957 84.3191 496.672 83.8968 496.251 83.5834C495.83 83.27 495.296 83.0834 494.735 83.053C458.982 81.1286 423.229 82.6479 387.477 83.5088L388.441 87.5095C423.668 75.5792 460.737 67.9229 498.533 64.7712C501.548 64.4674 500.885 60.8718 498.232 60.5679C406.469 49.7305 316.695 68.063 226.921 82.7998L227.886 86.9524C324.352 62.2391 424.616 59.6564 524.519 55.5544C525.19 55.5544 525.834 55.3303 526.309 54.9314C526.784 54.5325 527.051 53.9915 527.051 53.4274C527.051 52.8633 526.784 52.3223 526.309 51.9234C525.834 51.5245 525.19 51.3004 524.519 51.3004C350.518 26.7897 175.191 49.5786 1.13064 61.125L2.09533 65.2776C148.362 41.3746 294.809 14.6356 443.668 5.4187L442.704 1.26605C356.909 10.1284 269.668 3.39302 182.848 0C182.251 0.0780597 181.708 0.332776 181.315 0.718172C180.922 1.10357 180.706 1.59425 180.706 2.10165C180.706 2.60904 180.922 3.09973 181.315 3.48512C181.708 3.87052 182.251 4.12523 182.848 4.20329H182.547Z" fill="#C5C5C5"/>
</svg>
