<svg width="504" height="113" viewBox="0 0 504 113" fill="none" xmlns="http://www.w3.org/2000/svg">
<path d="M159.694 3.69096C236.014 6.67041 312.65 12.5848 388.865 4.75822C391.713 4.44694 390.763 0.933857 388.021 1.11173C257.797 9.33857 129.578 32.685 1.72748 53.6745C-1.12067 54.1192 -0.171265 57.4989 2.57138 57.321C154.525 47.2265 307.481 27.2597 459.33 48.7829V45.0475C371.617 48.694 283.43 50.9174 198.724 72.7074C198.201 72.8424 197.755 73.1363 197.473 73.5322C197.191 73.9281 197.093 74.398 197.198 74.8513C197.303 75.3045 197.603 75.7089 198.041 75.9864C198.479 76.2639 199.023 76.3949 199.568 76.3539C277.523 63.5023 355.689 47.4044 435.595 56.8763L435.279 53.2299C401.846 56.0521 369.061 62.8802 337.914 73.5079C335.91 74.2194 336.49 77.1099 338.706 77.021C369.982 76.3095 401.259 74.9309 432.483 76.6652L431.692 73.1077L390.552 92.7187C388.759 93.5191 388.97 96.2762 391.343 96.2318C423.992 95.3424 456.482 92.4074 489.077 90.9399L488.813 87.2489C468.296 91.1622 449.572 99.5225 429.108 103.436C428.584 103.571 428.138 103.865 427.856 104.261C427.574 104.656 427.476 105.126 427.581 105.58C427.686 106.033 427.986 106.437 428.424 106.715C428.862 106.992 429.406 107.123 429.952 107.082C454.319 103.88 477.421 109.484 501.63 112.374C504.426 112.73 504.742 109.039 501.947 108.683C477.526 105.704 453.845 100.19 429.108 103.436L429.952 107.082C450.416 103.169 469.14 94.8087 489.657 90.8954C491.978 90.4507 491.925 87.1155 489.341 87.2045C456.745 88.672 424.255 91.6514 391.607 92.5408L392.451 96.0539C406.164 89.5021 419.878 82.9799 433.591 76.4873C434.037 76.3124 434.402 76.0171 434.627 75.6481C434.852 75.2791 434.925 74.8573 434.835 74.4494C434.744 74.0415 434.495 73.6707 434.126 73.3956C433.758 73.1204 433.291 72.9565 432.8 72.9298C401.523 71.24 370.246 72.574 338.969 73.33L339.813 76.8431C370.63 66.3669 403.058 59.6439 436.123 56.8763C438.76 56.6095 438.18 53.4522 435.859 53.1854C355.583 43.6689 277.048 59.7669 198.513 72.7074L199.357 76.3539C283.747 54.6529 371.459 52.3849 458.855 48.7829C459.443 48.7829 460.006 48.5861 460.422 48.2359C460.837 47.8856 461.07 47.4105 461.07 46.9152C461.07 46.4199 460.837 45.9448 460.422 45.5945C460.006 45.2443 459.443 45.0475 458.855 45.0475C306.637 23.5243 153.259 43.5355 0.989075 53.6745L1.83298 57.321C129.789 36.3315 257.903 12.8517 388.126 4.75822L387.282 1.11173C312.228 8.89388 235.909 2.97945 159.958 0C159.436 0.0685451 158.96 0.292215 158.616 0.630635C158.272 0.969055 158.083 1.39993 158.083 1.84548C158.083 2.29103 158.272 2.7219 158.616 3.06032C158.96 3.39874 159.436 3.62241 159.958 3.69096H159.694Z" fill="#C5C5C5"/>
</svg>
