<svg width="56" height="24" viewBox="0 0 56 24" fill="none" xmlns="http://www.w3.org/2000/svg">
<g id="&#208;&#152;&#208;&#186;&#208;&#190;&#208;&#189;&#208;&#186;&#208;&#176; &#34;&#208;&#161;&#208;&#178;&#208;&#176;&#208;&#185;&#208;&#191;&#34;">
<path id="Vector" opacity="0.2" d="M55.5881 0H39.9411C39.7137 0 39.5293 0.184353 39.5293 0.411765V16.0588C39.5293 16.2862 39.7137 16.4706 39.9411 16.4706H55.5881C55.8155 16.4706 55.9999 16.2862 55.9999 16.0588V0.411765C55.9999 0.184353 55.8155 0 55.5881 0Z" fill="#797979"/>
<path id="Vector_2" opacity="0.2" d="M16.0588 0H0.411765C0.184353 0 0 0.184353 0 0.411765V16.0588C0 16.2862 0.184353 16.4706 0.411765 16.4706H16.0588C16.2862 16.4706 16.4706 16.2862 16.4706 16.0588V0.411765C16.4706 0.184353 16.2862 0 16.0588 0Z" fill="#797979"/>
<path id="Vector_3" opacity="0.3" d="M35.8235 0H20.1764C19.949 0 19.7646 0.184353 19.7646 0.411765V16.0588C19.7646 16.2862 19.949 16.4706 20.1764 16.4706H35.8235C36.0509 16.4706 36.2352 16.2862 36.2352 16.0588V0.411765C36.2352 0.184353 36.0509 0 35.8235 0Z" fill="#797979"/>
<path id="Vector_4" d="M26.2671 23.5282C26.2671 23.5282 22.8824 17.5 21.4577 14.8894C19.5635 11.4141 19.2506 9.94823 20.56 9.22353C21.3753 8.77059 22.5035 8.96 23.1953 10.1624L24.8094 12.7318V2.66C24.8094 2.66 24.7106 0 26.6047 0C28.6224 0 28.4494 2.66 28.4494 2.66V7.55176C28.4494 7.55176 29.5118 6.78588 30.7553 7.13176C31.3894 7.30471 32.1306 7.60941 32.5259 8.61412C32.5259 8.61412 35.0541 7.38706 36.3141 9.99765C36.3141 9.99765 39.2294 9.42118 39.2294 12.4435C39.2294 15.4659 35.5894 23.5282 35.5894 23.5282H26.2671Z" fill="#124BDC"/>
</g>
</svg>
