<svg width="159" height="159" viewBox="0 0 159 159" fill="none" xmlns="http://www.w3.org/2000/svg">
<path d="M47.503 86.3564C56.8541 80.3695 66.594 73.7518 75.9451 67.7649C85.806 61.6572 95.157 55.6703 105.139 50.0723C110.774 46.5822 116.529 43.6019 122.285 40.6216C122.164 40.1117 121.533 39.7227 121.412 39.2129C108.655 53.5468 96.5288 68.2697 84.4024 82.9925C81.0489 87.0189 77.8162 91.5551 74.4626 95.5814C73.6847 96.8429 75.4561 97.4999 76.3549 96.7483C87.8506 81.6364 99.977 66.9135 112.103 52.1907C115.457 48.1643 119.32 44.0171 122.674 39.9908C123.573 39.2391 122.7 37.8304 121.801 38.5821C111.82 44.18 101.838 49.778 91.9769 55.8857C82.116 61.9935 72.2551 68.1013 62.9041 74.0882C56.8803 78.2092 51.7554 81.5784 46.7514 85.4576C45.7317 85.6993 46.6042 87.1081 47.503 86.3564Z" fill="#AAAAAA"/>
<path d="M118.261 39.2587C116.732 39.6214 115.202 39.984 113.673 40.3467C112.143 40.7094 110.613 41.0721 109.205 41.9446C105.757 43.3007 102.697 44.0261 99.7591 45.2613C93.8825 47.7318 87.8851 49.6923 82.1294 52.6726C69.8664 57.7344 58.355 63.695 47.5953 70.5544C40.9407 74.2864 34.917 78.4073 28.8932 82.5282C27.9944 83.2799 28.3571 84.8095 29.3768 84.5677C35.616 83.6269 41.9762 83.1959 48.4572 83.2747C49.5978 83.5428 49.6241 81.3825 48.6044 81.6243C42.1234 81.5454 35.2534 82.0973 29.0141 83.0381C29.135 83.548 29.2559 84.0578 29.4977 85.0776C40.1365 77.7083 50.8962 70.8488 62.4076 64.8882C73.919 58.9276 85.5512 53.4769 97.4253 49.0458C100.873 47.6897 104.322 46.3336 107.77 44.9775C109.299 44.6148 111.218 43.6214 112.747 43.2587C114.277 42.896 116.317 42.4125 117.725 41.5399C119.013 40.1575 118.771 39.1378 118.261 39.2587Z" fill="#AAAAAA"/>
<path d="M115.833 40.373C113.914 41.3664 111.607 42.9906 109.809 44.4939C108.012 45.9972 106.214 47.5005 104.416 49.0038C100.821 52.0104 97.2255 55.017 93.1203 58.1445C85.9296 64.1577 78.8599 70.6807 71.7901 77.2038C67.8058 80.8411 63.8215 84.4785 59.8371 88.1159C59.3273 88.2367 59.4482 88.7466 59.5691 89.2565C62.0395 95.1331 63.8792 100.621 65.8398 106.618C65.9607 107.128 67.1013 107.396 67.4903 106.765C67.8792 106.135 68.2682 105.504 68.6572 104.873C69.0461 104.242 69.4351 103.612 69.8241 102.981C70.602 101.719 71.38 100.458 72.1579 99.1962C73.7138 96.6732 75.2697 94.1502 76.8256 91.6272C77.2145 90.9964 76.5838 90.6074 76.1948 91.2382C74.0082 93.3722 72.4523 95.8953 70.8964 98.4183C70.1185 99.6798 69.3405 100.941 68.5626 102.203C68.1736 102.834 67.7846 103.464 67.3957 104.095C67.0067 104.726 66.6177 105.357 66.2287 105.987C66.7386 105.866 67.3694 106.255 67.8792 106.135C65.9186 100.137 63.9581 94.1396 61.4876 88.263C61.6085 88.7729 61.6085 88.7729 61.2196 89.4037C74.8493 76.4784 89.1097 63.9422 103.88 51.285C106.188 49.6609 107.864 47.6477 110.172 46.0235C111.071 45.2719 112.479 44.3993 113.257 43.1378C114.156 42.3862 115.565 41.5136 116.343 40.2521C116.464 40.762 116.343 40.2521 115.833 40.373Z" fill="#AAAAAA"/>
<path d="M47.8002 85.0464C47.7739 87.2067 47.7476 89.3671 48.2312 91.4065C48.2049 93.5669 48.6885 95.6063 48.6622 97.7667C48.6096 102.087 48.557 106.408 47.8737 110.34C47.4847 110.971 48.6253 111.239 49.0143 110.608C51.3481 106.823 53.6819 103.039 56.0157 99.2542C58.3496 95.4697 60.6834 91.6852 62.5074 88.0215C62.8963 87.3908 61.7557 87.1227 61.8766 87.6325C58.912 91.0281 57.0881 94.6918 54.7542 98.4763C52.4204 102.261 50.0866 106.045 47.7528 109.83C48.3835 110.219 48.8934 110.098 49.5241 110.487C50.0866 106.045 50.2601 102.235 50.3126 97.9138C50.3389 95.7535 50.3652 93.5931 49.8817 91.5537C49.908 89.3933 49.4244 87.3539 48.9408 85.3144C48.1892 84.4156 47.6793 84.5365 47.8002 85.0464Z" fill="#AAAAAA"/>
<path d="M44.7673 83.6113C44.4992 84.752 44.741 85.7717 44.8619 86.2815C45.1037 87.3013 45.3455 88.321 45.0774 89.4616C45.5609 91.5011 45.5347 93.6614 46.1391 96.2107C46.6227 98.2502 46.5964 100.411 47.2009 102.96C47.4426 103.98 47.6844 104.999 47.4164 106.14C47.6581 107.16 47.3901 108.3 48.1417 109.199C48.2626 109.709 48.7725 109.588 49.1614 108.957C49.4295 107.817 49.1877 106.797 48.9459 105.777C48.7042 104.758 48.4624 103.738 48.7305 102.597C48.2469 100.558 48.2732 98.3974 47.6687 95.8481C47.1851 93.8086 47.2114 91.6483 46.607 89.0989C46.3652 88.0792 46.1234 87.0595 45.8816 86.0398C45.7607 85.5299 46.0288 84.3893 44.7673 83.6113C45.2772 83.4904 45.2772 83.4904 44.7673 83.6113Z" fill="#AAAAAA"/>
</svg>
