<svg width="408" height="10" viewBox="0 0 408 10" fill="none" xmlns="http://www.w3.org/2000/svg">
<path d="M8.94338 2.10604C12.1748 2.15199 15.407 2.13999 18.6237 2.15412L22.5539 2.14678L39.8985 2.09308C46.7576 2.06766 53.6672 2.03946 60.6275 2.00846L90.2493 1.85534L97.0323 1.84115L114.286 1.78615L131.539 1.76803C133.8 1.7633 136.092 1.74846 138.307 1.75362L165.831 1.84468L182.765 1.90105C184.964 1.93233 187.18 1.90588 189.395 1.92684L215.992 2.17859L242.255 2.41505C244.576 2.44806 246.806 2.47977 249.188 2.51364L266.331 2.73108L292.957 3.05174L301.68 3.17579L319.886 3.43467L321.403 3.45625C307.707 3.32473 294.012 3.19672 280.317 3.07223L263.217 2.95553C260.76 2.92058 258.287 2.88542 255.813 2.88713L230.991 2.76599L202.298 2.62671C200.69 2.60384 199.082 2.62839 197.488 2.63208L182.192 2.66222L151.191 2.71668C149.674 2.69511 148.156 2.73148 146.638 2.74679L131.462 2.89456L104.358 3.16251C101.869 3.18508 99.3796 3.23399 96.8905 3.27236L79.5275 3.55238L57.4448 3.8654L26.7408 4.36143L19.3645 4.47785C14.9631 4.54699 10.5759 4.67956 6.18913 4.7858C6.06708 4.77841 5.94282 4.78011 5.8247 4.79081C5.70657 4.8015 5.5973 4.82093 5.50419 4.84779C5.41109 4.87466 5.33631 4.90834 5.28485 4.94658C5.2334 4.98482 5.20647 5.02674 5.20586 5.06953C5.20525 5.11231 5.23098 5.15498 5.28133 5.19467C5.33167 5.23436 5.40546 5.27015 5.49777 5.29965C5.59007 5.32916 5.69875 5.35169 5.81652 5.36573C5.9343 5.37978 6.05845 5.38502 6.18066 5.3811L10.9888 5.52324C10.78 5.66436 10.6687 5.8214 10.6636 5.98231C10.6635 6.27256 10.9933 6.55522 11.5813 6.76882C12.1693 6.98242 12.9679 7.1097 13.8036 7.12296C26.3539 7.02743 38.9044 6.91083 51.4689 6.884L84.1849 6.8223L120.346 6.74109L131.742 6.71346C132.834 6.72899 133.927 6.70238 135.019 6.70737L193.283 7.00898L224.418 7.16718C228.181 7.18908 231.929 7.21075 235.676 7.24297L295.257 7.7688L320.792 7.98964C328.059 8.05083 335.326 8.13836 342.595 8.14687L360.606 8.16588C363.641 8.17215 366.675 8.18896 369.589 8.16716L390.001 7.97792C389.617 8.20234 389.51 8.47347 389.702 8.73244C389.894 8.98356 390.36 9.20201 390.998 9.34103C391.322 9.41352 391.683 9.46257 392.058 9.48514C392.434 9.5077 392.816 9.50329 393.181 9.47219C394.701 9.2883 396.221 9.09915 397.635 8.90322L397.544 8.90192L397.863 8.85904L398.244 8.80648L398.107 8.80454L400.463 8.49555L402.941 8.16721C403.823 8.04275 404.69 7.89173 405.542 7.74577C406.012 7.65368 406.4 7.51981 406.668 7.35733C406.936 7.19485 407.076 7.00935 407.073 6.81907C407.075 6.58015 406.853 6.3447 406.439 6.14857C406.025 5.95245 405.443 5.80639 404.782 5.73265C404.009 5.67423 403.266 5.62678 402.493 5.58417L401.977 5.57684C401.461 5.5695 400.93 5.56195 400.459 5.59214C399.306 5.57575 398.152 5.64891 396.999 5.65885L394.161 5.69227L386.572 5.77405L384.6 5.79342C384.839 5.70225 385.017 5.59329 385.12 5.47413C385.24 5.38086 385.309 5.27997 385.321 5.17665L385.416 4.95141C385.414 4.85594 385.364 4.76072 385.268 4.67004L385.466 4.64124C385.94 4.55148 386.338 4.42134 386.624 4.26252C386.88 4.1005 387.018 3.91817 387.026 3.73078C387.022 3.53457 386.873 3.34022 386.594 3.16609L386.097 2.93771C385.708 2.79602 385.223 2.691 384.69 2.63317C383.718 2.50006 382.69 2.43005 381.658 2.42671C380.824 2.41484 379.959 2.40254 379.124 2.41702L375.453 2.36481C373.723 2.34022 372.009 2.31584 370.28 2.29125L356.626 2.09709C352.332 2.03603 348.039 1.97498 343.746 1.91393L332.034 1.74738C316.468 1.52604 300.918 1.33652 285.351 1.16786L250.334 0.859595C245.115 0.785382 239.911 0.753531 234.692 0.721463L199.613 0.480826L189.614 0.412411C187.672 0.384797 185.745 0.404812 183.803 0.403539L149.131 0.363648L138.509 0.354875C136.536 0.35317 134.548 0.367054 132.575 0.375885L98.189 0.529748C92.2556 0.556027 86.3371 0.598327 80.4035 0.640411L49.9763 0.871652C41.1896 0.936396 32.4032 0.980067 23.6169 1.02374L19.4437 1.0487L12.6908 1.07914C10.6878 1.08227 8.68499 1.0696 6.62196 1.02445C6.52843 0.931086 6.35428 0.849169 6.12387 0.790152C5.89345 0.731136 5.61829 0.69797 5.33685 0.695292C4.0468 0.713832 2.75659 0.742908 1.46639 0.771984C1.16663 0.774836 0.879261 0.808598 0.640687 0.868992C0.402113 0.929386 0.223074 1.01369 0.126253 1.11123C0.0323737 1.23567 0.0857753 1.36974 0.274743 1.48406C0.46371 1.59837 0.772812 1.68358 1.13424 1.72099L2.81627 1.88191C3.37559 1.92999 3.94339 1.96273 4.51437 1.97983C5.98527 2.04817 7.47187 2.07985 8.94338 2.10604ZM363.968 5.46314L369.626 5.54361C369.788 5.69272 370.046 5.82803 370.379 5.93898C369.651 5.94969 368.922 5.95514 368.194 5.95532L364.067 5.94933L346.025 5.91935C343.279 5.91718 340.532 5.93081 337.786 5.90757L324.905 5.7929L295.471 5.53768L238.333 5.04132C224.678 4.92091 211.022 4.87426 197.366 4.80654L135.825 4.49521C131.713 4.47889 127.585 4.50977 123.473 4.51979L88.4803 4.60708L54.1404 4.68783L50.9537 4.69521L60.2116 4.57393L92.5531 4.17495L103.845 4.03517L109.672 3.99158L143.301 3.77952C145.486 3.76317 147.671 3.73629 149.872 3.73596L159.416 3.72941L194.088 3.7535L201.675 3.76127C202.343 3.77076 203.01 3.78026 203.693 3.78996L209.049 3.82924L243.779 4.07545C249.104 4.1143 254.4 4.14745 259.77 4.20801C276.99 4.40546 294.195 4.58688 311.353 4.80454C328.907 5.012 346.445 5.21924 363.983 5.46336L363.968 5.46314Z" fill="white"/>
</svg>
